<svg width="48" height="48" viewBox="0 0 48 48" fill="none" xmlns="http://www.w3.org/2000/svg">
<ellipse cx="24.1" cy="44.2198" rx="16.1" ry="2.78022" fill="#F3F2F6"/>
<path d="M22.4486 3.56812H21.6758V10.907H22.4486V3.56812Z" fill="#5C5C5C"/>
<path d="M30.9259 3.58044H30.1531V10.9193H30.9259V3.58044Z" fill="#5C5C5C"/>
<path d="M22.568 3.35571H22.342V10.8904H22.568V3.35571Z" fill="#5C5C5C"/>
<path d="M30.9854 3.35571H30.7595V10.8904H30.9854V3.35571Z" fill="#5C5C5C"/>
<path d="M21.6752 3.56562V2.16836C21.6752 2.16836 21.5682 0.980041 22.7334 1.08451H29.9388C29.9388 1.08451 30.997 1.03228 30.9851 2.32506V3.59173L21.6752 3.56562Z" fill="#5C5C5C"/>
<path d="M33.901 42.4153C33.7584 42.2717 33.58 42.0497 33.4492 41.7494C33.1639 41.0703 33.2947 40.4174 32.9974 40.2868C32.9498 40.2607 32.8785 40.2476 32.7715 40.2868C32.7715 41.2662 32.7715 42.2456 32.7715 43.225C32.7715 43.225 33.3422 42.1542 33.901 42.4153Z" fill="#303030"/>
<path d="M33.8998 44.423C34.5237 44.423 35.0294 43.8793 35.0294 43.2086C35.0294 42.5379 34.5237 41.9941 33.8998 41.9941C33.276 41.9941 32.7703 42.5379 32.7703 43.2086C32.7703 43.8793 33.276 44.423 33.8998 44.423Z" fill="#303030"/>
<path d="M33.9006 43.6949C34.1501 43.6949 34.3524 43.4786 34.3524 43.2117C34.3524 42.9449 34.1501 42.7286 33.9006 42.7286C33.651 42.7286 33.4487 42.9449 33.4487 43.2117C33.4487 43.4786 33.651 43.6949 33.9006 43.6949Z" fill="#5C5C5C"/>
<path d="M29.0126 42.4153C28.8699 42.2717 28.6916 42.0497 28.5608 41.7494C28.2754 41.0703 28.4062 40.4174 28.109 40.2868C28.0614 40.2607 27.9901 40.2476 27.8831 40.2868C27.8831 41.2662 27.8831 42.2456 27.8831 43.225C27.8831 43.225 28.4419 42.1542 29.0126 42.4153Z" fill="#303030"/>
<path d="M29.0136 44.423C29.6374 44.423 30.1432 43.8793 30.1432 43.2086C30.1432 42.5379 29.6374 41.9941 29.0136 41.9941C28.3898 41.9941 27.884 42.5379 27.884 43.2086C27.884 43.8793 28.3898 44.423 29.0136 44.423Z" fill="#303030"/>
<path d="M29.0129 43.6949C29.2624 43.6949 29.4647 43.4786 29.4647 43.2117C29.4647 42.9449 29.2624 42.7286 29.0129 42.7286C28.7633 42.7286 28.561 42.9449 28.561 43.2117C28.561 43.4786 28.7633 43.6949 29.0129 43.6949Z" fill="#5C5C5C"/>
<path d="M15.707 42.4794C15.8497 42.3357 16.0281 42.1137 16.147 41.8134C16.4323 41.1343 16.3015 40.4814 16.5869 40.3508C16.6345 40.3247 16.7058 40.3117 16.8128 40.3508C16.8128 41.3302 16.8128 42.3096 16.8128 43.289C16.8128 43.289 16.254 42.2182 15.707 42.4794Z" fill="#303030"/>
<path d="M15.7076 44.4723C16.3183 44.4723 16.8134 43.9286 16.8134 43.2579C16.8134 42.5872 16.3183 42.0435 15.7076 42.0435C15.0969 42.0435 14.6018 42.5872 14.6018 43.2579C14.6018 43.9286 15.0969 44.4723 15.7076 44.4723Z" fill="#303030"/>
<path d="M15.707 43.7423C15.95 43.7423 16.147 43.526 16.147 43.2592C16.147 42.9923 15.95 42.776 15.707 42.776C15.4641 42.776 15.2671 42.9923 15.2671 43.2592C15.2671 43.526 15.4641 43.7423 15.707 43.7423Z" fill="#5C5C5C"/>
<path d="M34.3985 6.30756H33.4117H27.8828H27.6331C27.6925 7.26082 27.752 8.56667 27.7639 9.74193C27.7757 9.80722 27.7876 9.88557 27.7995 9.91168C27.8352 10.0162 27.8709 10.1337 27.8828 10.2512V33.2863C27.8471 33.6519 27.8114 34.0045 27.7639 34.3702C27.752 34.5138 27.7282 34.6574 27.7163 34.8011C27.7044 34.997 27.7044 35.1928 27.6925 35.3887C27.7638 35.7021 27.8233 36.0155 27.8709 36.3289C27.8709 36.3681 27.8828 36.4073 27.8828 36.4334V40.821H28.0373H33.4117H34.3985C35.9205 40.821 37.1808 39.4499 37.1808 37.7654V9.36324C37.1808 7.6787 35.9324 6.30756 34.3985 6.30756Z" fill="#5C5C5C"/>
<path d="M29.2622 40.8312H13.4365C12.616 40.8312 11.9502 40.1 11.9502 39.1989V7.95005C11.9502 7.04902 12.616 6.31775 13.4365 6.31775H29.2741C30.0945 6.31775 30.7604 7.04902 30.7604 7.95005V39.1989C30.7604 40.1 30.0826 40.8312 29.2622 40.8312Z" fill="#5C5C5C"/>
<path d="M34.66 26.8113H33.5099C33.2288 26.8113 32.9988 26.5587 32.9988 26.2499V18.6851C32.9988 18.3764 33.2288 18.1238 33.5099 18.1238H34.66C34.9412 18.1238 35.1712 18.3764 35.1712 18.6851V26.2499C35.1712 26.5587 34.9412 26.8113 34.66 26.8113Z" fill="#5C5C5C"/>
<path d="M33.6132 26.8119H33.3979C33.1167 26.8119 32.8867 26.5593 32.8867 26.2505V18.6857C32.8867 18.377 33.1167 18.1244 33.3979 18.1244H33.6132V26.8119Z" fill="#858585"/>
<path d="M28.8826 7.77039C28.3714 8.1752 27.9671 8.73671 27.6461 9.32434C27.3369 9.92502 27.111 10.5779 26.9921 11.2439L26.9445 11.492L26.9208 11.6226L26.9089 11.7532C26.897 11.923 26.8732 12.0927 26.8613 12.2625C26.8494 12.602 26.8375 12.9415 26.8494 13.2941L26.8613 15.3704C26.8851 18.1388 26.8732 20.9072 26.8851 23.6886C26.8732 26.457 26.8732 29.2254 26.8613 32.0069L26.8494 34.0832C26.8375 34.7752 26.9089 35.4543 27.0278 36.1333C27.2537 37.4783 27.7293 38.8103 28.5378 39.8811C28.1098 39.3718 27.765 38.7711 27.5034 38.1443C27.2418 37.5175 27.0397 36.8385 26.9089 36.1594C26.7781 35.4804 26.6948 34.7883 26.6948 34.0832L26.683 32.0069C26.6592 29.2385 26.6592 26.4701 26.6592 23.6886C26.6711 20.9202 26.6711 18.1519 26.683 15.3704L26.6948 13.2941C26.6948 12.9546 26.7067 12.602 26.7305 12.2494C26.7662 11.8969 26.8019 11.5573 26.8851 11.2178C27.0278 10.5388 27.2656 9.88585 27.5985 9.28516C27.9433 8.69753 28.3595 8.16214 28.8826 7.77039Z" fill="#5C5C5C"/>
<path d="M26.2303 7.61346C25.719 8.01828 25.3148 8.57979 24.9937 9.16742C24.6846 9.76811 24.4587 10.421 24.3398 11.087L24.2922 11.3351L24.2684 11.4657L24.2565 11.5963C24.2446 11.766 24.2209 11.9358 24.209 12.1056C24.1971 12.4451 24.1852 12.7846 24.1971 13.1372L24.209 15.2135C24.2327 17.9819 24.2209 20.7503 24.2328 23.5317C24.2209 26.3001 24.2209 29.0685 24.209 31.8499L24.1971 33.9262C24.1852 34.6183 24.2565 35.2974 24.3754 35.9764C24.6013 37.3214 25.077 38.6534 25.8855 39.7242C25.4574 39.2149 25.1126 38.6142 24.851 37.9874C24.5895 37.3606 24.3873 36.6816 24.2565 36.0025C24.1257 35.3235 24.0425 34.6314 24.0425 33.9262L24.0306 31.8499C24.0068 29.0815 24.0068 26.3132 24.0068 23.5317C24.0187 20.7633 24.0187 17.9949 24.0306 15.2135L24.0425 13.1372C24.0425 12.7977 24.0544 12.4451 24.0782 12.0925C24.1139 11.7399 24.1495 11.4004 24.2328 11.0609C24.3754 10.3819 24.6132 9.72893 24.9462 9.12824C25.2791 8.54061 25.7071 7.99216 26.2303 7.61346Z" fill="#5C5C5C"/>
<path d="M23.7925 7.84869C23.2813 8.25351 22.877 8.81502 22.556 9.40265C22.2468 10.0033 22.0209 10.6563 21.902 11.3222L21.8545 11.5704L21.8307 11.7009L21.8188 11.8315C21.8069 12.0013 21.7831 12.171 21.7712 12.3408C21.7593 12.6803 21.7474 13.0198 21.7593 13.3724L21.7712 15.4487C21.795 18.2171 21.7831 20.9855 21.795 23.7669C21.7831 26.5353 21.7831 29.3037 21.7712 32.0852L21.7593 34.1615C21.7474 34.8536 21.8188 35.5326 21.9377 36.2116C22.1636 37.5567 22.6392 38.8886 23.4477 39.9594C23.0197 39.4501 22.6749 38.8494 22.4133 38.2226C22.1517 37.5958 21.9496 36.9168 21.8188 36.2378C21.688 35.5587 21.6048 34.8666 21.6048 34.1615L21.5929 32.0852C21.5691 29.3168 21.5691 26.5484 21.5691 23.7669C21.581 20.9986 21.581 18.2302 21.5929 15.4487L21.6048 13.3724C21.6048 13.0329 21.6167 12.6803 21.6404 12.3277C21.6761 11.9752 21.7118 11.6356 21.795 11.2961C21.9377 10.6171 22.1755 9.96417 22.5084 9.36348C22.8413 8.77585 23.2694 8.24045 23.7925 7.84869Z" fill="#5C5C5C"/>
<path d="M21.3546 7.84869C20.8433 8.25351 20.439 8.81502 20.118 9.40265C19.8088 10.0033 19.5829 10.6563 19.464 11.3222L19.4165 11.5704L19.3927 11.7009L19.3808 11.8315C19.3689 12.0013 19.3451 12.171 19.3332 12.3408C19.3213 12.6803 19.3095 13.0198 19.3213 13.3724L19.3332 15.4487C19.357 18.2171 19.3451 20.9855 19.357 23.7669C19.3451 26.5353 19.3451 29.3037 19.3332 32.0852L19.3213 34.1615C19.3095 34.8536 19.3808 35.5326 19.4997 36.2116C19.7256 37.5567 20.2012 38.8886 21.0097 39.9594C20.5817 39.4501 20.2369 38.8494 19.9753 38.2226C19.7137 37.5958 19.5116 36.9168 19.3808 36.2378C19.25 35.5587 19.1668 34.8666 19.1668 34.1615L19.1549 32.0852C19.1311 29.3168 19.1311 26.5484 19.1311 23.7669C19.143 20.9986 19.143 18.2302 19.1549 15.4487L19.1668 13.3724C19.1668 13.0329 19.1787 12.6803 19.2024 12.3277C19.2381 11.9752 19.2738 11.6356 19.357 11.2961C19.4997 10.6171 19.7375 9.96417 20.0704 9.36348C20.4152 8.77585 20.8314 8.24045 21.3546 7.84869Z" fill="#5C5C5C"/>
<path d="M18.7032 7.84869C18.1919 8.25351 17.7876 8.81502 17.4666 9.40265C17.1575 10.0033 16.9316 10.6563 16.8127 11.3222L16.7651 11.5704L16.7413 11.7009L16.7294 11.8315C16.7175 12.0013 16.6938 12.171 16.6819 12.3408C16.67 12.6803 16.6581 13.0198 16.67 13.3724L16.6819 15.4487C16.7057 18.2171 16.6938 20.9855 16.7057 23.7669C16.6938 26.5353 16.6938 29.3037 16.6819 32.0852L16.67 34.1615C16.6581 34.8536 16.7294 35.5326 16.8483 36.2116C17.0742 37.5567 17.5498 38.8886 18.3584 39.9594C17.9303 39.4501 17.5855 38.8494 17.3239 38.2226C17.0624 37.5958 16.8602 36.9168 16.7294 36.2378C16.5986 35.5587 16.5154 34.8666 16.5154 34.1615L16.5035 32.0852C16.4797 29.3168 16.4797 26.5484 16.4797 23.7669C16.4916 20.9986 16.4916 18.2302 16.5035 15.4487L16.5154 13.3724C16.5154 13.0329 16.5273 12.6803 16.5511 12.3277C16.5868 11.9752 16.6224 11.6356 16.7057 11.2961C16.8483 10.6171 17.0861 9.96417 17.4191 9.36348C17.752 8.77585 18.18 8.24045 18.7032 7.84869Z" fill="#5C5C5C"/>
<path d="M16.0401 7.84869C15.5288 8.25351 15.1246 8.81502 14.8035 9.40265C14.4944 10.0033 14.2685 10.6563 14.1496 11.3222L14.102 11.5704L14.0782 11.7009L14.0663 11.8315C14.0544 12.0013 14.0307 12.171 14.0188 12.3408C14.0069 12.6803 13.995 13.0198 14.0069 13.3724L14.0188 15.4487C14.0426 18.2171 14.0307 20.9855 14.0426 23.7669C14.0307 26.5353 14.0307 29.3037 14.0188 32.0852L14.0069 34.1615C13.995 34.8536 14.0663 35.5326 14.1852 36.2116C14.4112 37.5567 14.8868 38.8886 15.6953 39.9594C15.2672 39.4501 14.9224 38.8494 14.6608 38.2226C14.3993 37.5958 14.1971 36.9168 14.0663 36.2378C13.9355 35.5587 13.8523 34.8666 13.8523 34.1615L13.8404 32.0852C13.8166 29.3168 13.8167 26.5484 13.8167 23.7669C13.8285 20.9986 13.8285 18.2302 13.8404 15.4487L13.8523 13.3724C13.8523 13.0329 13.8642 12.6803 13.888 12.3277C13.9237 11.9752 13.9593 11.6356 14.0426 11.2961C14.1852 10.6171 14.423 9.96417 14.756 9.36348C15.1008 8.77585 15.5169 8.24045 16.0401 7.84869Z" fill="#5C5C5C"/>
<path d="M22.493 3.48022H21.7224V10.7974H22.493V3.48022Z" fill="#B8B8B8"/>
<path d="M30.9451 3.49335H30.1746V10.8105H30.9451V3.49335Z" fill="#B8B8B8"/>
<path d="M22.6112 3.27191H22.386V10.7843H22.6112V3.27191Z" fill="#858585"/>
<path d="M31.0045 3.27191H30.7793V10.7843H31.0045V3.27191Z" fill="#858585"/>
<path d="M21.7218 3.48026V2.08713C21.7218 2.08713 21.6151 0.902328 22.7769 1.00649H29.961C29.961 1.00649 31.0161 0.954411 31.0042 2.24337V3.50629L21.7218 3.48026Z" fill="#303030"/>
<path d="M33.9097 42.2133C33.7674 42.0701 33.5896 41.8488 33.4592 41.5493C33.1747 40.8723 33.3051 40.2213 33.0087 40.0911C32.9613 40.0651 32.8901 40.0521 32.7834 40.0911C32.7834 41.0676 32.7834 42.0441 32.7834 43.0206C32.7834 43.0206 33.3525 41.953 33.9097 42.2133Z" fill="#303030"/>
<path d="M33.9089 44.2184C34.5309 44.2184 35.0352 43.6763 35.0352 43.0075C35.0352 42.3388 34.5309 41.7967 33.9089 41.7967C33.2869 41.7967 32.7827 42.3388 32.7827 43.0075C32.7827 43.6763 33.2869 44.2184 33.9089 44.2184Z" fill="#303030"/>
<path d="M33.9092 43.4895C34.158 43.4895 34.3597 43.2738 34.3597 43.0077C34.3597 42.7417 34.158 42.526 33.9092 42.526C33.6604 42.526 33.4587 42.7417 33.4587 43.0077C33.4587 43.2738 33.6604 43.4895 33.9092 43.4895Z" fill="#B8B8B8"/>
<path d="M29.0374 42.2133C28.8951 42.0701 28.7173 41.8488 28.5869 41.5493C28.3023 40.8723 28.4327 40.2213 28.1364 40.0911C28.089 40.0651 28.0178 40.0521 27.9111 40.0911C27.9111 41.0676 27.9111 42.0441 27.9111 43.0206C27.9111 43.0206 28.4683 41.953 29.0374 42.2133Z" fill="#303030"/>
<path d="M29.0369 44.2184C29.6589 44.2184 30.1631 43.6763 30.1631 43.0076C30.1631 42.3389 29.6589 41.7968 29.0369 41.7968C28.4149 41.7968 27.9106 42.3389 27.9106 43.0076C27.9106 43.6763 28.4149 44.2184 29.0369 44.2184Z" fill="#303030"/>
<path d="M29.0369 43.4895C29.2857 43.4895 29.4874 43.2738 29.4874 43.0078C29.4874 42.7417 29.2857 42.5261 29.0369 42.5261C28.7881 42.5261 28.5864 42.7417 28.5864 43.0078C28.5864 43.2738 28.7881 43.4895 29.0369 43.4895Z" fill="#B8B8B8"/>
<path d="M15.7712 42.2784C15.9135 42.1352 16.0913 41.9139 16.2099 41.6144C16.4944 40.9374 16.364 40.2864 16.6485 40.1562C16.6959 40.1301 16.7671 40.1171 16.8737 40.1562C16.8737 41.1327 16.8737 42.1092 16.8737 43.0856C16.8737 43.0856 16.3166 42.018 15.7712 42.2784Z" fill="#303030"/>
<path d="M15.7712 44.2705C16.3801 44.2705 16.8737 43.7284 16.8737 43.0597C16.8737 42.3909 16.3801 41.8488 15.7712 41.8488C15.1623 41.8488 14.6687 42.3909 14.6687 43.0597C14.6687 43.7284 15.1623 44.2705 15.7712 44.2705Z" fill="#303030"/>
<path d="M15.7712 43.5414C16.0134 43.5414 16.2098 43.3257 16.2098 43.0597C16.2098 42.7936 16.0134 42.5779 15.7712 42.5779C15.5289 42.5779 15.3325 42.7936 15.3325 43.0597C15.3325 43.3257 15.5289 43.5414 15.7712 43.5414Z" fill="#B8B8B8"/>
<path d="M34.4071 6.21338H33.4231H27.9106H27.6616C27.7209 7.16383 27.7802 8.46581 27.792 9.63759C27.8039 9.70269 27.8157 9.78081 27.8276 9.80684C27.8632 9.911 27.8987 10.0282 27.9106 10.1454V33.1123C27.875 33.4769 27.8394 33.8284 27.792 34.193C27.7802 34.3362 27.7565 34.4794 27.7446 34.6226C27.7328 34.8179 27.7328 35.0132 27.7209 35.2085C27.792 35.521 27.8513 35.8335 27.8987 36.1459C27.8987 36.185 27.9106 36.2241 27.9106 36.2501V40.6247H28.0647H33.4231H34.4071C35.9245 40.6247 37.1811 39.2577 37.1811 37.5781V9.26002C37.1811 7.58046 35.9364 6.21338 34.4071 6.21338Z" fill="#858585"/>
<path d="M29.2857 40.6378H13.5068C12.6888 40.6378 12.0249 39.9087 12.0249 39.0103V7.85392C12.0249 6.95555 12.6888 6.22644 13.5068 6.22644H29.2976C30.1156 6.22644 30.7794 6.95555 30.7794 7.85392V39.0103C30.7794 39.9087 30.1037 40.6378 29.2857 40.6378Z" fill="#B8B8B8"/>
<path d="M34.6671 26.6617H33.5204C33.2401 26.6617 33.0107 26.4099 33.0107 26.102V18.5596C33.0107 18.2518 33.2401 17.9999 33.5204 17.9999H34.6671C34.9474 17.9999 35.1767 18.2518 35.1767 18.5596V26.102C35.1767 26.4099 34.9474 26.6617 34.6671 26.6617Z" fill="#B8B8B8"/>
<path d="M33.6235 26.662H33.4088C33.1285 26.662 32.8992 26.4101 32.8992 26.1023V18.5599C32.8992 18.252 33.1285 18.0002 33.4088 18.0002H33.6235V26.662Z" fill="#303030"/>
<path d="M28.9061 7.67169C28.3963 8.07531 27.9933 8.63515 27.6732 9.22105C27.3649 9.81996 27.1397 10.4709 27.0211 11.135L26.9737 11.3823L26.95 11.5125L26.9382 11.6427C26.9263 11.812 26.9026 11.9812 26.8907 12.1505C26.8789 12.489 26.867 12.8275 26.8789 13.1791L26.8907 15.2492C26.9144 18.0094 26.9026 20.7696 26.9144 23.5428C26.9026 26.303 26.9026 29.0632 26.8907 31.8365L26.8789 33.9066C26.867 34.5967 26.9382 35.2737 27.0567 35.9507C27.282 37.2918 27.7562 38.6198 28.5623 39.6874C28.1355 39.1796 27.7917 38.5807 27.5309 37.9558C27.2701 37.3308 27.0686 36.6538 26.9382 35.9768C26.8078 35.2997 26.7248 34.6097 26.7248 33.9066L26.7129 31.8365C26.6892 29.0763 26.6892 26.3161 26.6892 23.5428C26.7011 20.7826 26.7011 18.0224 26.7129 15.2492L26.7248 13.1791C26.7248 12.8406 26.7366 12.489 26.7603 12.1375C26.7959 11.786 26.8315 11.4474 26.9144 11.1089C27.0567 10.4319 27.2938 9.7809 27.6257 9.18199C27.9695 8.5961 28.3845 8.06229 28.9061 7.67169Z" fill="#858585"/>
<path d="M26.2625 7.51544C25.7528 7.91906 25.3497 8.47891 25.0296 9.0648C24.7214 9.66371 24.4961 10.3147 24.3776 10.9787L24.3302 11.2261L24.3065 11.3563L24.2946 11.4865C24.2828 11.6557 24.259 11.825 24.2472 11.9943C24.2353 12.3328 24.2235 12.6713 24.2353 13.0228L24.2472 15.093C24.2709 17.8532 24.259 20.6134 24.2709 23.3866C24.259 26.1468 24.259 28.907 24.2472 31.6802L24.2353 33.7504C24.2235 34.4404 24.2946 35.1175 24.4132 35.7945C24.6384 37.1355 25.1126 38.4635 25.9187 39.5312C25.492 39.0234 25.1482 38.4245 24.8874 37.7995C24.6266 37.1746 24.425 36.4976 24.2946 35.8205C24.1642 35.1435 24.0812 34.4534 24.0812 33.7504L24.0694 31.6802C24.0457 28.92 24.0457 26.1598 24.0457 23.3866C24.0575 20.6264 24.0575 17.8662 24.0694 15.093L24.0812 13.0228C24.0812 12.6843 24.0931 12.3328 24.1168 11.9812C24.1524 11.6297 24.1879 11.2912 24.2709 10.9527C24.4132 10.2756 24.6503 9.62465 24.9822 9.02574C25.3141 8.43985 25.7409 7.89302 26.2625 7.51544Z" fill="#858585"/>
<path d="M23.8324 7.74976C23.3226 8.15337 22.9195 8.71323 22.5994 9.29912C22.2912 9.89803 22.066 10.549 21.9474 11.213L21.9 11.4604L21.8763 11.5906L21.8644 11.7208C21.8526 11.8901 21.8289 12.0593 21.817 12.2286C21.8052 12.5671 21.7933 12.9056 21.8052 13.2571L21.817 15.3273C21.8407 18.0875 21.8289 20.8477 21.8407 23.6209C21.8289 26.3811 21.8289 29.1413 21.817 31.9145L21.8052 33.9847C21.7933 34.6747 21.8644 35.3518 21.983 36.0288C22.2082 37.3698 22.6824 38.6979 23.4886 39.7655C23.0618 39.2577 22.718 38.6588 22.4572 38.0338C22.1964 37.4089 21.9948 36.7319 21.8644 36.0548C21.734 35.3778 21.651 34.6877 21.651 33.9847L21.6392 31.9145C21.6155 29.1543 21.6155 26.3941 21.6155 23.6209C21.6273 20.8607 21.6273 18.1005 21.6392 15.3273L21.651 13.2571C21.651 12.9186 21.6629 12.5671 21.6866 12.2156C21.7222 11.864 21.7577 11.5255 21.8407 11.187C21.983 10.51 22.2201 9.85897 22.552 9.26006C22.884 8.67417 23.3107 8.14035 23.8324 7.74976Z" fill="#858585"/>
<path d="M21.4024 7.74976C20.8927 8.15337 20.4896 8.71323 20.1695 9.29912C19.8613 9.89803 19.636 10.549 19.5175 11.213L19.4701 11.4604L19.4464 11.5906L19.4345 11.7208C19.4227 11.8901 19.3989 12.0593 19.3871 12.2286C19.3752 12.5671 19.3634 12.9056 19.3752 13.2571L19.3871 15.3273C19.4108 18.0875 19.3989 20.8477 19.4108 23.6209C19.3989 26.3811 19.3989 29.1413 19.3871 31.9145L19.3752 33.9847C19.3634 34.6747 19.4345 35.3518 19.5531 36.0288C19.7783 37.3698 20.2525 38.6979 21.0586 39.7655C20.6319 39.2577 20.2881 38.6588 20.0273 38.0338C19.7664 37.4089 19.5649 36.7319 19.4345 36.0548C19.3041 35.3778 19.2211 34.6877 19.2211 33.9847L19.2093 31.9145C19.1855 29.1543 19.1855 26.3941 19.1855 23.6209C19.1974 20.8607 19.1974 18.1005 19.2093 15.3273L19.2211 13.2571C19.2211 12.9186 19.233 12.5671 19.2567 12.2156C19.2922 11.864 19.3278 11.5255 19.4108 11.187C19.5531 10.51 19.7902 9.85897 20.1221 9.26006C20.4659 8.67417 20.8808 8.14035 21.4024 7.74976Z" fill="#858585"/>
<path d="M18.7589 7.74976C18.2491 8.15337 17.846 8.71323 17.526 9.29912C17.2177 9.89803 16.9925 10.549 16.8739 11.213L16.8265 11.4604L16.8028 11.5906L16.791 11.7208C16.7791 11.8901 16.7554 12.0593 16.7435 12.2286C16.7317 12.5671 16.7198 12.9056 16.7317 13.2571L16.7435 15.3273C16.7672 18.0875 16.7554 20.8477 16.7672 23.6209C16.7554 26.3811 16.7554 29.1413 16.7435 31.9145L16.7317 33.9847C16.7198 34.6747 16.791 35.3518 16.9095 36.0288C17.1347 37.3698 17.6089 38.6979 18.4151 39.7655C17.9883 39.2577 17.6445 38.6588 17.3837 38.0338C17.1229 37.4089 16.9214 36.7319 16.791 36.0548C16.6605 35.3778 16.5776 34.6877 16.5776 33.9847L16.5657 31.9145C16.542 29.1543 16.542 26.3941 16.542 23.6209C16.5538 20.8607 16.5538 18.1005 16.5657 15.3273L16.5776 13.2571C16.5776 12.9186 16.5894 12.5671 16.6131 12.2156C16.6487 11.864 16.6843 11.5255 16.7672 11.187C16.9095 10.51 17.1466 9.85897 17.4785 9.26006C17.8105 8.67417 18.2373 8.14035 18.7589 7.74976Z" fill="#858585"/>
<path d="M16.1029 7.74976C15.5931 8.15337 15.19 8.71323 14.8699 9.29912C14.5617 9.89803 14.3365 10.549 14.2179 11.213L14.1705 11.4604L14.1468 11.5906L14.1349 11.7208C14.1231 11.8901 14.0994 12.0593 14.0875 12.2286C14.0757 12.5671 14.0638 12.9056 14.0757 13.2571L14.0875 15.3273C14.1112 18.0875 14.0994 20.8477 14.1112 23.6209C14.0994 26.3811 14.0994 29.1413 14.0875 31.9145L14.0757 33.9847C14.0638 34.6747 14.1349 35.3518 14.2535 36.0288C14.4787 37.3698 14.9529 38.6979 15.7591 39.7655C15.3323 39.2577 14.9885 38.6588 14.7277 38.0338C14.4669 37.4089 14.2653 36.7319 14.1349 36.0548C14.0045 35.3778 13.9215 34.6877 13.9215 33.9847L13.9097 31.9145C13.886 29.1543 13.886 26.3941 13.886 23.6209C13.8978 20.8607 13.8978 18.1005 13.9097 15.3273L13.9215 13.2571C13.9215 12.9186 13.9334 12.5671 13.9571 12.2156C13.9927 11.864 14.0282 11.5255 14.1112 11.187C14.2535 10.51 14.4906 9.85897 14.8225 9.26006C15.1663 8.67417 15.5812 8.14035 16.1029 7.74976Z" fill="#858585"/>
</svg>
