<svg width="48" height="48" viewBox="0 0 48 48" fill="none" xmlns="http://www.w3.org/2000/svg">
<ellipse cx="24" cy="45.0723" rx="12" ry="1.92771" fill="#F3F2F6"/>
<path d="M24.3965 8.63129H23.7139V21.7978H24.3965V8.63129Z" fill="#B8B8B8"/>
<path d="M24.7378 8.63129H24.3965V21.7978H24.7378V8.63129Z" fill="#858585"/>
<path d="M31.9058 8.63129H31.2231V21.7978H31.9058V8.63129Z" fill="#B8B8B8"/>
<path d="M32.1323 8.39844H31.9048V22.6136H32.1323V8.39844Z" fill="#858585"/>
<path d="M23.7014 8.99381V7.98716C23.7126 7.84989 23.7461 7.56392 23.9583 7.34658C24.1035 7.19787 24.2598 7.15211 24.4497 7.09491C24.5949 7.04916 24.7401 7.02628 25.0975 7.01484C25.3767 7.0034 25.5219 7.0034 25.7564 7.01484C26.46 7.04916 29.375 6.95765 30.8604 7.02628C30.9721 7.02628 31.3071 7.04916 31.6422 7.2665C31.9326 7.46097 32.0442 7.68975 32.0666 7.74695C32.1448 7.91853 32.1671 8.09012 32.1783 8.18163C32.1783 8.45617 32.1783 8.73071 32.1783 9.00525H23.7014V8.99381Z" fill="#303030"/>
<path d="M30.1685 43.7998C30.1685 43.7883 30.1685 43.7883 30.1685 43.7769V42.1411C30.1685 42.0153 30.269 41.9238 30.403 41.9238C30.5258 41.9238 30.6375 42.0267 30.6375 42.1411V43.0448C30.7827 42.9533 30.9614 42.9075 31.1513 42.9075C31.6985 42.9075 32.1341 43.3308 32.1341 43.8455C32.1341 44.3603 31.6985 44.7836 31.1513 44.7836C30.604 44.7836 30.1685 44.3603 30.1685 43.8455C30.1685 43.8227 30.1685 43.8112 30.1685 43.7998Z" fill="#303030"/>
<path d="M27.3208 43.7998C27.3208 43.7883 27.3208 43.7883 27.3208 43.7769V42.1411C27.3208 42.0153 27.4213 41.9238 27.5553 41.9238C27.6782 41.9238 27.7899 42.0267 27.7899 42.1411V43.0448C27.9351 42.9533 28.1138 42.9075 28.3036 42.9075C28.8509 42.9075 29.2864 43.3308 29.2864 43.8455C29.2864 44.3603 28.8509 44.7836 28.3036 44.7836C27.7564 44.7836 27.3208 44.3603 27.3208 43.8455C27.3208 43.8227 27.3208 43.8112 27.3208 43.7998Z" fill="#303030"/>
<path d="M18.2294 43.7998C18.2294 43.7883 18.2294 43.7883 18.2294 43.7769V42.1411C18.2294 42.0153 18.1289 41.9238 17.9949 41.9238C17.8609 41.9238 17.7604 42.0267 17.7604 42.1411V43.0448C17.604 42.9533 17.4253 42.9075 17.2354 42.9075C16.6882 42.9075 16.2415 43.3308 16.2415 43.8455C16.2415 44.3603 16.6882 44.7836 17.2354 44.7836C17.7827 44.7836 18.2294 44.3603 18.2294 43.8455C18.2294 43.8227 18.2294 43.8112 18.2294 43.7998Z" fill="#303030"/>
<path d="M27.1867 42.5183V21.1157C23.892 21.15 20.5973 21.1957 17.3026 21.2301C16.5432 21.2186 15.8507 21.5961 15.5157 22.2481C15.2811 22.7171 15.2811 23.1747 15.3035 23.4035C15.3035 29.1688 15.3035 34.9341 15.3035 40.6995C15.3035 40.6995 15.3928 42.3238 17.2244 42.5183H27.1867Z" fill="#B8B8B8"/>
<path d="M27.1873 21.127H31.7663C31.7663 21.127 32.1795 21.047 32.1795 22.168V41.2943C32.1795 41.2943 32.0232 42.4725 30.5825 42.5297H27.1873V21.127Z" fill="#858585"/>
<path d="M17.1577 40.2533H16.8115C16.7109 40.2533 16.6216 40.1618 16.6216 40.0588V23.2318C16.6216 23.1289 16.7109 23.0374 16.8115 23.0374H17.1577C17.2582 23.0374 17.3475 23.1289 17.3475 23.2318V40.0588C17.3475 40.1618 17.2582 40.2533 17.1577 40.2533Z" fill="#858585"/>
<path d="M19.4243 40.2533H19.078C18.9775 40.2533 18.8882 40.1618 18.8882 40.0588V23.2318C18.8882 23.1289 18.9775 23.0374 19.078 23.0374H19.4243C19.5248 23.0374 19.6141 23.1289 19.6141 23.2318V40.0588C19.6141 40.1618 19.536 40.2533 19.4243 40.2533Z" fill="#858585"/>
<path d="M21.614 40.2533H21.2678C21.1672 40.2533 21.0779 40.1618 21.0779 40.0588V23.2318C21.0779 23.1289 21.1672 23.0374 21.2678 23.0374H21.614C21.7145 23.0374 21.8038 23.1289 21.8038 23.2318V40.0588C21.8038 40.1618 21.7145 40.2533 21.614 40.2533Z" fill="#858585"/>
<path d="M23.6792 40.2533H23.3329C23.2324 40.2533 23.1431 40.1618 23.1431 40.0588V23.2318C23.1431 23.1289 23.2324 23.0374 23.3329 23.0374H23.6792C23.7797 23.0374 23.869 23.1289 23.869 23.2318V40.0588C23.869 40.1618 23.7908 40.2533 23.6792 40.2533Z" fill="#858585"/>
<path d="M25.7016 40.2533H25.3554C25.2549 40.2533 25.1655 40.1618 25.1655 40.0588V23.2318C25.1655 23.1289 25.2549 23.0374 25.3554 23.0374H25.7016C25.8021 23.0374 25.8915 23.1289 25.8915 23.2318V40.0588C25.8915 40.1618 25.8021 40.2533 25.7016 40.2533Z" fill="#858585"/>
<path d="M28.9287 40.2533H28.5825C28.4819 40.2533 28.3926 40.1618 28.3926 40.0588V23.2318C28.3926 23.1289 28.4819 23.0374 28.5825 23.0374H28.9287C29.0292 23.0374 29.1185 23.1289 29.1185 23.2318V40.0588C29.1185 40.1618 29.0292 40.2533 28.9287 40.2533Z" fill="#5C5C5C"/>
<path d="M31.0517 40.2533H30.7055C30.605 40.2533 30.5156 40.1618 30.5156 40.0588V23.2318C30.5156 23.1289 30.605 23.0374 30.7055 23.0374H31.0517C31.1522 23.0374 31.2416 23.1289 31.2416 23.2318V40.0588C31.2416 40.1618 31.1522 40.2533 31.0517 40.2533Z" fill="#5C5C5C"/>
</svg>
