<svg width="48" height="48" viewBox="0 0 48 48" fill="none" xmlns="http://www.w3.org/2000/svg">
<ellipse cx="24.2838" cy="44.5294" rx="12.7826" ry="1.97647" fill="#F3F2F6"/>
<path d="M32.258 43.4879C32.1361 43.3675 31.9837 43.1814 31.872 42.9297C31.6282 42.3605 31.7399 41.8133 31.486 41.7038C31.4453 41.6819 31.3844 41.671 31.293 41.7038C31.293 42.5247 31.293 43.3456 31.293 44.1665C31.293 44.1665 31.7805 43.269 32.258 43.4879Z" fill="#303030"/>
<path d="M32.2575 45.1734C32.7904 45.1734 33.2225 44.7177 33.2225 44.1555C33.2225 43.5934 32.7904 43.1376 32.2575 43.1376C31.7245 43.1376 31.2925 43.5934 31.2925 44.1555C31.2925 44.7177 31.7245 45.1734 32.2575 45.1734Z" fill="#303030"/>
<path d="M32.2576 44.5605C32.4708 44.5605 32.6436 44.3792 32.6436 44.1555C32.6436 43.9319 32.4708 43.7505 32.2576 43.7505C32.0444 43.7505 31.8716 43.9319 31.8716 44.1555C31.8716 44.3792 32.0444 44.5605 32.2576 44.5605Z" fill="#B8B8B8"/>
<path d="M28.0832 43.4879C27.9613 43.3675 27.8089 43.1814 27.6972 42.9297C27.4534 42.3605 27.5651 41.8133 27.3112 41.7038C27.2705 41.6819 27.2096 41.671 27.1182 41.7038C27.1182 42.5247 27.1182 43.3456 27.1182 44.1665C27.1182 44.1665 27.5956 43.269 28.0832 43.4879Z" fill="#303030"/>
<path d="M28.0829 45.1734C28.6159 45.1734 29.0479 44.7177 29.0479 44.1555C29.0479 43.5934 28.6159 43.1376 28.0829 43.1376C27.55 43.1376 27.1179 43.5934 27.1179 44.1555C27.1179 44.7177 27.55 45.1734 28.0829 45.1734Z" fill="#303030"/>
<path d="M28.0828 44.5605C28.296 44.5605 28.4688 44.3792 28.4688 44.1555C28.4688 43.9319 28.296 43.7505 28.0828 43.7505C27.8696 43.7505 27.6968 43.9319 27.6968 44.1555C27.6968 44.3792 27.8696 44.5605 28.0828 44.5605Z" fill="#B8B8B8"/>
<path d="M16.7166 43.5427C16.8384 43.4223 16.9908 43.2363 17.0924 42.9845C17.3362 42.4154 17.2244 41.8681 17.4682 41.7587C17.5089 41.7368 17.5698 41.7259 17.6612 41.7587C17.6612 42.5796 17.6612 43.4005 17.6612 44.2213C17.6612 44.2213 17.1838 43.3238 16.7166 43.5427Z" fill="#303030"/>
<path d="M16.7164 45.2171C17.2381 45.2171 17.6611 44.7614 17.6611 44.1992C17.6611 43.6371 17.2381 43.1813 16.7164 43.1813C16.1947 43.1813 15.7717 43.6371 15.7717 44.1992C15.7717 44.7614 16.1947 45.2171 16.7164 45.2171Z" fill="#303030"/>
<path d="M16.7162 44.6046C16.9237 44.6046 17.092 44.4232 17.092 44.1996C17.092 43.9759 16.9237 43.7946 16.7162 43.7946C16.5086 43.7946 16.3403 43.9759 16.3403 44.1996C16.3403 44.4232 16.5086 44.6046 16.7162 44.6046Z" fill="#B8B8B8"/>
<path d="M32.6844 13.225H31.8413H27.1179H26.9045C26.9553 14.024 27.0061 15.1185 27.0163 16.1036C27.0264 16.1583 27.0366 16.224 27.0468 16.2459C27.0772 16.3334 27.1077 16.4319 27.1179 16.5304V35.8375C27.0874 36.1439 27.0569 36.4395 27.0163 36.7459C27.0061 36.8663 26.9858 36.9867 26.9756 37.1071C26.9655 37.2713 26.9655 37.4355 26.9553 37.5996C27.0163 37.8623 27.0671 38.125 27.1077 38.3877C27.1077 38.4205 27.1179 38.4533 27.1179 38.4752V42.1528H27.2499H31.8413H32.6844C33.9846 42.1528 35.0613 41.0035 35.0613 39.5916V15.7862C35.0613 14.3743 33.9947 13.225 32.6844 13.225Z" fill="#858585"/>
<path d="M28.2962 42.1638H14.7761C14.0752 42.1638 13.5063 41.5509 13.5063 40.7957V14.6042C13.5063 13.849 14.0752 13.2361 14.7761 13.2361H28.3063C29.0072 13.2361 29.5761 13.849 29.5761 14.6042V40.7957C29.5761 41.5509 28.9971 42.1638 28.2962 42.1638Z" fill="#B8B8B8"/>
<path d="M32.5725 40.5113H31.8716C31.6482 40.5113 31.4653 40.3143 31.4653 40.0735V15.3377C31.4653 15.0969 31.6482 14.8999 31.8716 14.8999H32.5725C32.796 14.8999 32.9789 15.0969 32.9789 15.3377V40.0735C32.9789 40.3143 32.796 40.5113 32.5725 40.5113Z" fill="#B8B8B8"/>
<path d="M27.9708 14.4512C27.534 14.7905 27.1887 15.2612 26.9144 15.7537C26.6503 16.2572 26.4573 16.8044 26.3557 17.3626L26.3151 17.5706L26.2948 17.68L26.2846 17.7895C26.2744 17.9318 26.2541 18.074 26.244 18.2163C26.2338 18.5009 26.2237 18.7855 26.2338 19.081L26.244 20.8212C26.2643 23.1416 26.2541 25.4619 26.2643 27.7932C26.2541 30.1136 26.2541 32.4339 26.244 34.7652L26.2338 36.5055C26.2237 37.0856 26.2846 37.6547 26.3862 38.2238C26.5792 39.3512 26.9855 40.4676 27.6762 41.3651C27.3105 40.9382 27.016 40.4347 26.7925 39.9094C26.569 39.384 26.3963 38.8149 26.2846 38.2457C26.1729 37.6766 26.1018 37.0965 26.1018 36.5055L26.0916 34.7652C26.0713 32.4449 26.0713 30.1245 26.0713 27.7932C26.0814 25.4729 26.0814 23.1525 26.0916 20.8212L26.1018 19.081C26.1018 18.7964 26.1119 18.5009 26.1322 18.2054C26.1627 17.9099 26.1932 17.6253 26.2643 17.3407C26.3862 16.7716 26.5893 16.2243 26.8738 15.7209C27.1683 15.2283 27.5239 14.7796 27.9708 14.4512Z" fill="#858585"/>
<path d="M25.7057 14.3196C25.2689 14.6589 24.9235 15.1295 24.6493 15.622C24.3852 16.1255 24.1922 16.6728 24.0906 17.231L24.0499 17.4389L24.0296 17.5484L24.0195 17.6578C24.0093 17.8001 23.989 17.9424 23.9788 18.0847C23.9687 18.3692 23.9585 18.6538 23.9687 18.9493L23.9788 20.6896C23.9992 23.0099 23.989 25.3303 23.9992 27.6616C23.989 29.9819 23.989 32.3023 23.9788 34.6336L23.9687 36.3738C23.9585 36.9539 24.0195 37.5231 24.121 38.0922C24.314 39.2195 24.7204 40.3359 25.4111 41.2334C25.0454 40.8066 24.7508 40.3031 24.5274 39.7777C24.3039 39.2524 24.1312 38.6832 24.0195 38.1141C23.9077 37.5449 23.8366 36.9649 23.8366 36.3738L23.8265 34.6336C23.8062 32.3132 23.8062 29.9929 23.8062 27.6616C23.8163 25.3412 23.8163 23.0209 23.8265 20.6896L23.8366 18.9493C23.8366 18.6648 23.8468 18.3692 23.8671 18.0737C23.8976 17.7782 23.928 17.4936 23.9992 17.2091C24.121 16.6399 24.3242 16.0927 24.6086 15.5892C24.893 15.0967 25.2587 14.637 25.7057 14.3196Z" fill="#858585"/>
<path d="M23.6234 14.5167C23.1866 14.856 22.8412 15.3267 22.567 15.8192C22.3029 16.3227 22.1099 16.8699 22.0083 17.4281L21.9677 17.6361L21.9474 17.7455L21.9372 17.855C21.927 17.9972 21.9067 18.1395 21.8966 18.2818C21.8864 18.5664 21.8762 18.851 21.8864 19.1465L21.8966 20.8867C21.9169 23.2071 21.9067 25.5274 21.9169 27.8587C21.9067 30.1791 21.9067 32.4994 21.8966 34.8307L21.8864 36.571C21.8762 37.1511 21.9372 37.7202 22.0388 38.2893C22.2318 39.4167 22.6381 40.5331 23.3288 41.4306C22.9631 41.0037 22.6686 40.5002 22.4451 39.9749C22.2216 39.4495 22.0489 38.8804 21.9372 38.3112C21.8255 37.7421 21.7544 37.162 21.7544 36.571L21.7442 34.8307C21.7239 32.5104 21.7239 30.19 21.7239 27.8587C21.734 25.5384 21.734 23.218 21.7442 20.8867L21.7544 19.1465C21.7544 18.8619 21.7645 18.5664 21.7848 18.2709C21.8153 17.9754 21.8458 17.6908 21.9169 17.4062C22.0388 16.8371 22.2419 16.2898 22.5263 15.7864C22.8108 15.2938 23.1764 14.8451 23.6234 14.5167Z" fill="#858585"/>
<path d="M21.5414 14.5167C21.1046 14.856 20.7592 15.3267 20.485 15.8192C20.2208 16.3227 20.0278 16.8699 19.9263 17.4281L19.8856 17.6361L19.8653 17.7455L19.8552 17.855C19.845 17.9972 19.8247 18.1395 19.8145 18.2818C19.8044 18.5664 19.7942 18.851 19.8044 19.1465L19.8145 20.8867C19.8348 23.2071 19.8247 25.5274 19.8348 27.8587C19.8247 30.1791 19.8247 32.4994 19.8145 34.8307L19.8044 36.571C19.7942 37.1511 19.8552 37.7202 19.9567 38.2893C20.1497 39.4167 20.5561 40.5331 21.2468 41.4306C20.8811 41.0037 20.5865 40.5002 20.3631 39.9749C20.1396 39.4495 19.9669 38.8804 19.8552 38.3112C19.7434 37.7421 19.6723 37.162 19.6723 36.571L19.6622 34.8307C19.6418 32.5104 19.6418 30.19 19.6418 27.8587C19.652 25.5384 19.652 23.218 19.6622 20.8867L19.6723 19.1465C19.6723 18.8619 19.6825 18.5664 19.7028 18.2709C19.7333 17.9754 19.7637 17.6908 19.8348 17.4062C19.9567 16.8371 20.1599 16.2898 20.4443 15.7864C20.7389 15.2938 21.0944 14.8451 21.5414 14.5167Z" fill="#858585"/>
<path d="M19.2762 14.5167C18.8394 14.856 18.4941 15.3267 18.2198 15.8192C17.9557 16.3227 17.7627 16.8699 17.6611 17.4281L17.6205 17.6361L17.6002 17.7455L17.59 17.855C17.5799 17.9972 17.5596 18.1395 17.5494 18.2818C17.5392 18.5664 17.5291 18.851 17.5392 19.1465L17.5494 20.8867C17.5697 23.2071 17.5596 25.5274 17.5697 27.8587C17.5596 30.1791 17.5596 32.4994 17.5494 34.8307L17.5392 36.571C17.5291 37.1511 17.59 37.7202 17.6916 38.2893C17.8846 39.4167 18.2909 40.5331 18.9816 41.4306C18.616 41.0037 18.3214 40.5002 18.0979 39.9749C17.8744 39.4495 17.7018 38.8804 17.59 38.3112C17.4783 37.7421 17.4072 37.162 17.4072 36.571L17.397 34.8307C17.3767 32.5104 17.3767 30.19 17.3767 27.8587C17.3869 25.5384 17.3869 23.218 17.397 20.8867L17.4072 19.1465C17.4072 18.8619 17.4173 18.5664 17.4377 18.2709C17.4681 17.9754 17.4986 17.6908 17.5697 17.4062C17.6916 16.8371 17.8948 16.2898 18.1792 15.7864C18.4636 15.2938 18.8293 14.8451 19.2762 14.5167Z" fill="#858585"/>
<path d="M17.0008 14.5167C16.564 14.856 16.2187 15.3267 15.9444 15.8192C15.6803 16.3227 15.4873 16.8699 15.3857 17.4281L15.3451 17.6361L15.3248 17.7455L15.3146 17.855C15.3045 17.9972 15.2842 18.1395 15.274 18.2818C15.2638 18.5664 15.2537 18.851 15.2638 19.1465L15.274 20.8867C15.2943 23.2071 15.2842 25.5274 15.2943 27.8587C15.2842 30.1791 15.2842 32.4994 15.274 34.8307L15.2638 36.571C15.2537 37.1511 15.3146 37.7202 15.4162 38.2893C15.6092 39.4167 16.0155 40.5331 16.7063 41.4306C16.3406 41.0037 16.046 40.5002 15.8225 39.9749C15.5991 39.4495 15.4264 38.8804 15.3146 38.3112C15.2029 37.7421 15.1318 37.162 15.1318 36.571L15.1216 34.8307C15.1013 32.5104 15.1013 30.19 15.1013 27.8587C15.1115 25.5384 15.1115 23.218 15.1216 20.8867L15.1318 19.1465C15.1318 18.8619 15.1419 18.5664 15.1623 18.2709C15.1927 17.9754 15.2232 17.6908 15.2943 17.4062C15.4162 16.8371 15.6194 16.2898 15.9038 15.7864C16.1984 15.2938 16.5539 14.8451 17.0008 14.5167Z" fill="#858585"/>
<path d="M22.4759 7.08527H21.8157V13.2364H22.4759V7.08527Z" fill="#B8B8B8"/>
<path d="M29.7179 7.09564H29.0576V13.2468H29.7179V7.09564Z" fill="#B8B8B8"/>
<path d="M22.577 6.91022H22.384V13.2255H22.577V6.91022Z" fill="#858585"/>
<path d="M29.7692 6.91022H29.5762V13.2255H29.7692V6.91022Z" fill="#858585"/>
<path d="M21.8152 7.08501V5.91389C21.8152 5.91389 21.7238 4.91789 22.7192 5.00545H28.8749C28.8749 5.00545 29.7789 4.96168 29.7688 6.04523V7.1069L21.8152 7.08501Z" fill="#303030"/>
</svg>
