<svg width="48" height="48" viewBox="0 0 48 48" fill="none" xmlns="http://www.w3.org/2000/svg">
<path d="M42.6985 34.861C42.6985 36.6047 34.4832 38.0183 24.3492 38.0183C14.2152 38.0183 6 36.6047 6 34.861C6 33.1173 11.8799 33.1963 22.0139 33.1963C32.1479 33.1963 42.6985 33.1173 42.6985 34.861Z" fill="#CDD1F1"/>
<path d="M21.6542 16.0294C21.0464 15.6541 20.1348 15.221 18.9497 14.9611C17.1568 14.5858 15.6678 14.8745 14.8778 15.0766C14.27 15.3076 13.5407 15.6829 12.8418 16.2892C10.5932 18.1948 10.2589 20.9377 10.1677 21.7461C10.1677 23.0454 10.3501 24.1136 10.5324 24.8932C11.2617 27.9248 12.8418 30.0324 13.8142 31.0718C14.6651 31.9957 15.4855 32.6598 16.0933 33.0929C16.2452 32.0535 16.3668 31.0141 16.5187 29.9747C17.0961 30.812 17.1872 31.1296 17.0961 31.1873C16.8834 31.3894 15.3336 30.4078 14.2093 29.0796C13.0849 27.7226 12.6595 26.3368 12.2341 24.9221C12.0214 24.258 11.839 23.4784 11.7783 22.5256C11.6871 21.2841 11.8998 20.6201 11.991 20.3602C12.1429 19.9271 12.3252 19.5807 12.4772 19.3497C12.6595 18.9455 13.0545 18.2814 13.8142 17.704C14.7258 17.0111 15.6679 16.8956 16.1541 16.8667C16.6099 16.8089 17.3695 16.7512 18.2204 17.0688C18.8585 17.2998 19.3143 17.6751 19.5574 17.9061C19.5878 17.935 19.8005 16.9533 21.6542 16.0294Z" fill="#E55CB4"/>
<path d="M26.4571 14.0074C26.4571 14.0074 17.7663 13.3145 16.1253 25.3542V33.1208C16.1253 33.1208 15.6695 35.0841 18.1309 35.3151H20.5923L20.3492 24.6612C20.3492 24.6612 20.8051 18.0495 24.8162 15.9707L33.1728 16.6636C33.1728 16.6636 31.4711 14.3827 26.4571 14.0074Z" fill="#F283C5"/>
<path d="M29.2535 15.0477C29.9828 15.1343 31.6541 15.3942 33.1431 16.6645C35.2703 18.4835 35.5741 21.1975 35.8476 23.4206C35.9996 24.7776 35.9084 25.384 35.8476 27.5205C35.7868 29.3683 35.7565 32.0534 35.9388 35.316C30.5906 35.316 25.212 35.316 19.8638 35.316C19.8942 33.9013 19.9246 32.2267 19.9549 30.35C19.9853 28.1557 19.9549 27.3473 20.0157 25.8459C20.1373 23.2474 20.1676 21.9482 20.5323 20.8799C20.8969 19.7539 21.5351 17.7617 23.5407 16.3181C25.9109 14.6435 28.6154 14.9611 29.2535 15.0477Z" fill="#E55CB4"/>
<path d="M34.0514 26.7669C28.1866 26.7669 25.2694 26.7381 23.9019 26.8824C23.6284 26.9402 22.7472 27.1423 22.0787 27.9796C21.3494 28.8746 21.3494 29.8563 21.3494 30.1161V35.342H37.1205C36.9078 34.7357 36.9078 34.7357 36.452 33.4941C36.9078 34.7068 36.9078 34.7068 37.1205 35.342C37.1509 34.3603 37.1205 31.7041 37.0597 29.1345C37.0597 28.8169 36.999 28.4993 36.8167 28.1817C36.7863 28.0951 36.5735 27.7486 36.1481 27.431C35.358 26.7958 34.2945 26.7669 34.0514 26.7669Z" fill="#6617A3"/>
<path d="M19.9819 27.545C19.5261 27.5161 18.8272 27.4584 18.0675 27.1408C17.0951 26.7366 16.4569 26.1592 16.1227 25.7838C16.1227 27.9204 16.1227 30.0858 16.1227 32.2223C16.1227 32.2223 15.7276 35.3405 17.2774 35.3405H20.1035L19.9819 27.545Z" fill="#6617A3"/>
<path d="M31.4984 19.2594C31.4984 19.2594 28.6724 17.4115 24.8435 19.2016C24.8435 19.2016 27.4872 21.4537 31.4984 19.2594Z" fill="#10004F"/>
<path d="M19.1313 17.5573C19.9213 16.4601 21.076 15.7094 21.076 15.7094L20.2252 15.363L18.4324 17.1819L19.1313 17.5573Z" fill="#6617A3"/>
<path d="M34.6303 28.5041C34.6303 28.4753 34.6303 28.4753 34.6004 28.4753C34.5705 28.4753 34.5706 28.4753 34.5706 28.4753C34.5706 28.4753 34.6004 28.4753 34.6303 28.5041Z" fill="#DFE2F6"/>
<path d="M23.8433 28.4755C23.8433 28.4466 23.8433 28.4755 23.8433 28.4755C23.904 28.4466 23.8736 28.4466 23.8736 28.4177C23.8736 28.3889 23.8737 28.3889 23.9041 28.3889C23.9344 28.3889 23.9952 28.36 24.0256 28.3889C24.0256 28.3889 24.056 28.3889 24.056 28.36C24.0864 28.3311 24.1471 28.3311 24.1775 28.36H24.2079C24.2687 28.36 24.2991 28.36 24.3599 28.3311H24.3902H24.4206C24.4814 28.3023 24.5118 28.3023 24.5726 28.3311C24.603 28.3311 24.6334 28.3311 24.6637 28.3311C24.6637 28.3311 24.6941 28.3311 24.6941 28.3022H24.7245C24.6941 28.3311 24.7245 28.3311 24.7549 28.3311C24.8157 28.3311 24.846 28.3311 24.9068 28.3311C24.9068 28.3311 24.9372 28.3311 24.9068 28.3022H24.9372C24.998 28.3311 25.0587 28.3022 25.0891 28.3022C25.0891 28.3022 25.1196 28.2734 25.1196 28.3022C25.1196 28.2734 25.1499 28.3022 25.1499 28.3022C25.1499 28.3022 25.1499 28.3022 25.1803 28.3022C25.1803 28.3022 25.1803 28.3022 25.1499 28.3022H25.1803C25.2411 28.3022 25.2715 28.3022 25.3322 28.3022C25.3322 28.3022 25.3019 28.3022 25.3019 28.2734C25.3019 28.2734 25.3322 28.2734 25.3626 28.2734C25.4234 28.3022 25.4538 28.3022 25.5146 28.2734C25.5753 28.2734 25.6057 28.2734 25.6665 28.2734C25.7273 28.2734 25.7273 28.3311 25.7881 28.3022H25.7577C25.7881 28.3022 25.7881 28.2734 25.8184 28.3022C25.8792 28.3022 25.94 28.3022 26.0008 28.2734C26.0311 28.2445 26.0919 28.2734 26.1527 28.2445C26.1527 28.2734 26.1527 28.2734 26.1831 28.3022C26.2439 28.3022 26.3047 28.3022 26.3654 28.2734C26.4262 28.2734 26.4566 28.2734 26.5174 28.2734C26.5478 28.3022 26.5477 28.3022 26.5781 28.2734H26.6085C26.6693 28.2734 26.6997 28.2734 26.7604 28.2734H26.7909H26.7604H26.7909C26.8212 28.2734 26.8516 28.2734 26.882 28.3022C26.9124 28.3022 26.9124 28.3311 26.9124 28.3311C26.9124 28.36 26.9124 28.36 26.9428 28.36C27.0036 28.36 27.034 28.36 27.0947 28.36C27.1251 28.36 27.1859 28.3311 27.2162 28.3022L27.2467 28.3311C27.2467 28.36 27.277 28.3311 27.3074 28.3311C27.3074 28.3311 27.3378 28.3311 27.3074 28.3311C27.3378 28.3311 27.3378 28.3022 27.3682 28.3022C27.3986 28.3022 27.3986 28.3022 27.429 28.3022C27.429 28.3022 27.429 28.3022 27.4594 28.3022H27.429C27.429 28.3022 27.4594 28.3022 27.4897 28.3022C27.5809 28.2734 27.5809 28.2734 27.6417 28.3022C27.6721 28.3022 27.7025 28.3022 27.7329 28.3022H27.7632C27.7632 28.3022 27.7632 28.3022 27.7329 28.3022C27.7329 28.3022 27.7329 28.3022 27.7025 28.3022C27.7329 28.3022 27.7936 28.3022 27.824 28.3022C27.8544 28.3311 27.8848 28.3023 27.8848 28.3311C27.9152 28.3311 27.9152 28.3311 27.9456 28.3311C27.9456 28.3311 27.976 28.3023 28.0064 28.3311C28.0367 28.36 28.0975 28.3311 28.0975 28.36C28.0975 28.36 28.1279 28.36 28.1279 28.3889C28.1583 28.36 28.1583 28.36 28.1887 28.3889C28.2191 28.4177 28.219 28.3889 28.2494 28.3889C28.2798 28.36 28.3102 28.36 28.3406 28.36H28.371C28.371 28.36 28.371 28.36 28.3406 28.36C28.3406 28.36 28.3406 28.36 28.3102 28.36H28.3406C28.371 28.36 28.4014 28.36 28.4014 28.3311C28.4014 28.3311 28.4317 28.3023 28.4317 28.3311C28.4317 28.3311 28.4318 28.36 28.4622 28.3311C28.4925 28.3023 28.4925 28.3311 28.5229 28.3022C28.5533 28.3022 28.5837 28.3022 28.6141 28.3022C28.6445 28.3022 28.6748 28.3022 28.7356 28.2734C28.7964 28.2445 28.8572 28.2445 28.918 28.2734C28.9484 28.2734 28.9787 28.3022 29.0395 28.2734H29.0699C29.0699 28.2734 29.0699 28.2734 29.0395 28.2734C29.0091 28.2734 29.0091 28.2734 29.0091 28.3022C29.0091 28.3311 29.0395 28.3022 29.0395 28.3022C29.1003 28.3022 29.1611 28.2734 29.2218 28.2734C29.2522 28.2734 29.2826 28.3022 29.2826 28.2734C29.313 28.2734 29.2826 28.3022 29.2826 28.3022C29.2826 28.3022 29.2522 28.3311 29.2826 28.3311C29.313 28.3311 29.3434 28.3311 29.3738 28.3311C29.4042 28.3311 29.4042 28.3311 29.4042 28.36C29.4042 28.36 29.4042 28.3889 29.4345 28.36H29.4649C29.4953 28.36 29.4953 28.36 29.4953 28.3311C29.5257 28.3311 29.5865 28.3023 29.6169 28.3311C29.6472 28.3311 29.6473 28.3311 29.6777 28.3311C29.708 28.3311 29.7384 28.3022 29.7384 28.36C29.7384 28.36 29.7384 28.36 29.7384 28.3311C29.7384 28.3023 29.7688 28.3022 29.7992 28.3022H29.8296C29.86 28.3022 29.86 28.3023 29.86 28.3311H29.8904H29.9207V28.36C29.9511 28.36 29.9815 28.36 30.0119 28.36C30.0423 28.36 30.1031 28.3311 30.1335 28.36C30.1639 28.36 30.1942 28.36 30.2246 28.36C30.255 28.36 30.1942 28.3311 30.2246 28.3311H30.255H30.2854C30.2854 28.3023 30.3158 28.3023 30.3158 28.3311C30.3158 28.3311 30.3158 28.36 30.3462 28.3311C30.3765 28.3023 30.407 28.3023 30.4373 28.3311C30.4373 28.3311 30.4677 28.3311 30.4981 28.3311C30.5285 28.3311 30.5589 28.3311 30.5589 28.3311C30.5892 28.3023 30.65 28.3311 30.6804 28.3311C30.7108 28.3311 30.7108 28.3311 30.7412 28.3022C30.7716 28.3022 30.8323 28.3023 30.8627 28.3311C30.8931 28.3311 30.8931 28.3311 30.9235 28.3311C30.9235 28.3311 30.9235 28.3023 30.9539 28.3311C30.9539 28.3311 31.0147 28.36 31.0147 28.3311C31.0147 28.3311 31.0451 28.3311 31.0755 28.3311C31.1059 28.3311 31.1362 28.3022 31.1362 28.36C31.1362 28.3311 31.1666 28.36 31.197 28.3311C31.2578 28.3311 31.2882 28.3311 31.349 28.36C31.3793 28.36 31.4401 28.36 31.4705 28.36C31.4705 28.3311 31.5009 28.36 31.5009 28.36C31.5617 28.36 31.5921 28.36 31.6528 28.36C31.6528 28.36 31.6528 28.36 31.6832 28.36H31.6528H31.6832C31.744 28.3311 31.8048 28.36 31.8655 28.36C31.9263 28.3311 31.9567 28.36 32.0175 28.3311C32.0782 28.36 32.1694 28.3311 32.2302 28.3311H32.2606C32.2606 28.3311 32.2606 28.3311 32.291 28.3311C32.3213 28.3023 32.3517 28.3311 32.3821 28.3311C32.4125 28.3311 32.4125 28.3023 32.4429 28.3311H32.4733C32.5037 28.3311 32.5644 28.3023 32.6252 28.3311C32.6556 28.36 32.7164 28.36 32.7468 28.3311C32.7772 28.3311 32.8379 28.3311 32.8987 28.3311C32.9899 28.3311 33.0506 28.3311 33.1418 28.3311C33.1722 28.3023 33.233 28.3023 33.2633 28.3311C33.3545 28.3311 33.4457 28.3311 33.5065 28.3311C33.5672 28.3311 33.628 28.3311 33.6584 28.36C33.6584 28.36 33.6888 28.36 33.7191 28.36C33.7495 28.3311 33.7799 28.36 33.7799 28.36C33.7799 28.3889 33.8103 28.3889 33.8103 28.36H33.8407C33.8407 28.36 33.8407 28.3889 33.8407 28.36C33.8711 28.3311 33.9015 28.36 33.9319 28.36C33.9623 28.36 33.9623 28.3889 33.9623 28.36C33.9623 28.3311 33.9623 28.36 33.9926 28.36C34.0534 28.36 34.0838 28.36 34.1446 28.36C34.175 28.36 34.2357 28.36 34.2661 28.36C34.2965 28.36 34.3269 28.36 34.3269 28.36C34.3877 28.36 34.4485 28.3889 34.5396 28.3889C34.5396 28.3889 34.5396 28.3889 34.57 28.4177C34.57 28.4466 34.6004 28.4466 34.6308 28.4466C34.6308 28.4466 34.6611 28.4466 34.6611 28.4755C34.6611 28.5044 34.6612 28.5044 34.6308 28.5044C34.57 28.5044 34.5396 28.5044 34.4788 28.5044C34.4484 28.5044 34.4181 28.5044 34.3877 28.5044H34.3573C34.3573 28.5332 34.3269 28.5044 34.3269 28.5044C34.2661 28.4755 34.2357 28.5044 34.175 28.5044C34.1446 28.5044 34.0838 28.5044 34.023 28.5044C33.9926 28.5044 33.9623 28.5044 33.9319 28.5044C33.8407 28.5044 33.7192 28.5044 33.628 28.5044C33.5976 28.5044 33.5976 28.5044 33.5672 28.5044C33.5368 28.5044 33.5065 28.5044 33.4761 28.5044C33.4457 28.5044 33.3849 28.5044 33.3545 28.5044C33.3241 28.5044 33.3241 28.5044 33.2937 28.5044C33.2633 28.5044 33.233 28.5044 33.2026 28.5044C33.1418 28.5332 33.081 28.5044 32.9898 28.5044C32.9595 28.5044 32.9291 28.5044 32.8987 28.5044C32.8683 28.5044 32.8379 28.5044 32.7771 28.5044C32.7164 28.5044 32.686 28.4755 32.6252 28.5044C32.5644 28.5044 32.534 28.4755 32.5037 28.5044C32.4429 28.5044 32.4125 28.5044 32.3517 28.5044C32.2909 28.5332 32.2606 28.5044 32.1998 28.5332C32.1694 28.5332 32.1086 28.5332 32.0782 28.5332C32.0175 28.5332 31.9567 28.5332 31.8959 28.5332C31.8655 28.5332 31.8047 28.5044 31.7744 28.5332C31.7744 28.5044 31.7136 28.5332 31.7136 28.5332C31.6528 28.5332 31.5921 28.5044 31.5009 28.5332C31.4401 28.5332 31.3793 28.5332 31.3185 28.5332C31.2882 28.5332 31.2274 28.5332 31.197 28.5332C31.1666 28.5332 31.1362 28.5332 31.1058 28.5332C31.1058 28.5332 31.0755 28.5332 31.0755 28.5044C31.0755 28.5044 31.0451 28.5044 31.0147 28.5044C30.9539 28.5044 30.8627 28.5332 30.802 28.5044C30.7716 28.5044 30.7412 28.5044 30.7108 28.5044H30.6804C30.6804 28.5332 30.65 28.5332 30.65 28.5332H30.6197H30.65C30.6196 28.5332 30.5892 28.5332 30.5589 28.5332H30.5285C30.5285 28.5332 30.5589 28.5332 30.5285 28.5621C30.4981 28.5621 30.4981 28.5621 30.4981 28.5621H30.4677C30.4373 28.591 30.3766 28.591 30.3158 28.5621C30.2854 28.5621 30.255 28.5621 30.1942 28.5621C30.1638 28.5621 30.1639 28.5621 30.1335 28.5621C30.1335 28.591 30.1031 28.5621 30.0727 28.5621C30.0119 28.5621 29.9207 28.5621 29.86 28.5621C29.8296 28.5621 29.7688 28.5332 29.7384 28.5332C29.6776 28.5332 29.6473 28.5332 29.5865 28.5332C29.5865 28.5332 29.5865 28.5332 29.6169 28.5332H29.6472H29.6169C29.4649 28.5332 29.313 28.5621 29.1307 28.5332C29.0699 28.5332 28.9787 28.5332 28.918 28.5332C28.8876 28.5332 28.8876 28.5621 28.8572 28.5621C28.7964 28.5621 28.7356 28.5621 28.6445 28.5621C28.6141 28.5621 28.5533 28.5621 28.5229 28.5621C28.4925 28.5621 28.4925 28.5621 28.4622 28.5621C28.4014 28.5621 28.3406 28.5621 28.2798 28.5621C28.2494 28.5621 28.219 28.5621 28.219 28.5621H28.1887C28.1887 28.5332 28.1583 28.5621 28.1583 28.5621C28.1279 28.591 28.0975 28.591 28.0671 28.5621C28.0063 28.5621 27.9759 28.5621 27.9152 28.5621C27.9152 28.5621 27.8848 28.5621 27.8544 28.5621C27.8544 28.591 27.824 28.591 27.824 28.5621C27.7936 28.5621 27.7936 28.5332 27.7632 28.5332C27.7025 28.5332 27.6417 28.5332 27.6113 28.5332C27.4898 28.5332 27.3682 28.5332 27.2467 28.5332C27.1859 28.5332 27.0947 28.5332 27.0339 28.5332C27.0035 28.5332 26.9428 28.5332 26.9124 28.5332C26.8212 28.5332 26.7605 28.5332 26.6693 28.5332C26.6389 28.5332 26.6389 28.5332 26.6085 28.5332C26.5781 28.5332 26.5781 28.5332 26.5477 28.5332C26.5174 28.5621 26.5174 28.5332 26.487 28.5332C26.4566 28.5332 26.3958 28.5332 26.3654 28.5332C26.2743 28.5332 26.2135 28.5332 26.1223 28.5332C26.1223 28.5332 26.0919 28.5332 26.1223 28.5044H26.0919C26.0919 28.5044 26.0615 28.5044 26.0919 28.5332C26.0615 28.5044 26.0008 28.5332 25.9704 28.5044C25.8488 28.5044 25.7577 28.5044 25.6361 28.5044H25.6057C25.545 28.5044 25.4842 28.5044 25.4538 28.5044C25.393 28.4755 25.3323 28.5044 25.2715 28.5044C25.2411 28.5044 25.2107 28.4755 25.1803 28.5044C25.1803 28.5044 25.1803 28.5044 25.1499 28.5044C25.1195 28.4755 25.0588 28.5044 25.0284 28.5044C24.998 28.5044 24.998 28.5044 24.9676 28.4755H24.9372C24.8764 28.5044 24.7853 28.5044 24.7245 28.4755C24.6637 28.4466 24.6333 28.4755 24.5726 28.4755C24.5726 28.4755 24.5726 28.4755 24.5422 28.4755C24.5118 28.4466 24.5118 28.4755 24.4814 28.4755C24.4814 28.5044 24.4814 28.5044 24.451 28.5044H24.4814C24.4814 28.4755 24.451 28.5044 24.451 28.5044C24.3902 28.5332 24.2991 28.5044 24.2079 28.5044C24.1775 28.5044 24.1775 28.5044 24.1471 28.5044H24.1168C24.1168 28.4755 24.1168 28.5044 24.1168 28.5044C24.1471 28.4755 24.1168 28.4755 24.0864 28.4755C24.0864 28.4755 24.1168 28.4755 24.0864 28.5044C24.056 28.5044 24.056 28.5044 24.056 28.4755C24.0256 28.4755 23.9952 28.4755 23.9648 28.4755C23.904 28.5621 23.8433 28.5044 23.8433 28.4755ZM30.8627 28.6199C30.8931 28.6199 30.8931 28.6199 30.8931 28.6199C30.8931 28.6199 30.8931 28.6199 30.8627 28.6199C30.8931 28.6199 30.8627 28.591 30.8627 28.6199ZM29.9207 28.591C29.8903 28.591 29.9207 28.591 29.9207 28.591C29.8903 28.591 29.8903 28.591 29.9207 28.591ZM29.8904 28.3889C29.9207 28.3889 29.9207 28.3889 29.9207 28.3889H29.8904ZM29.2218 28.3889C29.2522 28.3889 29.2522 28.3889 29.2522 28.3889C29.2522 28.36 29.2218 28.36 29.2218 28.3889ZM28.0367 28.36C28.0367 28.36 28.0367 28.3889 28.0367 28.36C28.0671 28.36 28.0975 28.36 28.0975 28.36C28.0975 28.36 28.0671 28.36 28.0367 28.36ZM25.5754 28.3022C25.5754 28.3311 25.6057 28.3022 25.6057 28.3022H25.6361H25.6057C25.6361 28.3311 25.6057 28.2734 25.5754 28.3022ZM25.393 28.3311H25.4234C25.4234 28.3023 25.393 28.3023 25.393 28.3311Z" fill="#DFE2F6"/>
<path d="M25.9082 28.3316C25.9082 28.302 25.9082 28.302 25.9082 28.3316C25.8785 28.302 25.9082 28.302 25.9082 28.3316C25.9082 28.3316 25.8785 28.3316 25.9082 28.3316Z" fill="#DFE2F6"/>
<path d="M24.5139 28.331C24.5139 28.331 24.5438 28.331 24.5438 28.3022C24.5438 28.3022 24.5438 28.3022 24.5139 28.331C24.5438 28.3022 24.5438 28.3022 24.5139 28.331Z" fill="#DFE2F6"/>
<path d="M27.703 28.3587C27.703 28.329 27.703 28.3587 27.703 28.3587C27.6723 28.329 27.6723 28.3587 27.703 28.3587C27.6723 28.3587 27.6723 28.3587 27.703 28.3587Z" fill="#DFE2F6"/>
<path d="M24.6632 28.3022C24.6325 28.3022 24.6325 28.3022 24.6632 28.3022C24.6325 28.3022 24.6325 28.3319 24.6632 28.3022Z" fill="#DFE2F6"/>
<path d="M27.429 28.6484C27.398 28.6484 27.398 28.6484 27.429 28.6484C27.398 28.6784 27.429 28.6784 27.429 28.6484C27.429 28.6784 27.429 28.6784 27.429 28.6484Z" fill="#DFE2F6"/>
<path d="M29.3439 20.9047L27.3383 17.2957L25.2112 18.3062L27.703 22.5216L29.7086 21.4822L29.3439 20.9047Z" fill="white"/>
<path d="M31.4721 19.1996C30.9555 19.4883 29.7704 19.8348 28.1903 19.8637C26.519 19.8925 25.3642 19.5172 24.8476 19.1996C24.7565 19.7193 24.6653 20.3256 24.6653 20.9897C24.6349 21.9136 24.7261 22.722 24.8476 23.3572C25.6377 23.5882 26.7013 23.8192 27.9775 23.848C29.4058 23.8769 30.6213 23.6748 31.4721 23.4438C31.5937 22.9819 31.6849 22.4333 31.7153 21.7981C31.776 20.7587 31.6545 19.8348 31.4721 19.1996Z" fill="#6617A3"/>
<path d="M34.6303 33.1401C34.6303 33.1112 34.6303 33.1112 34.6004 33.1112C34.5705 33.1112 34.5706 33.1112 34.5706 33.1112C34.5706 33.1112 34.6004 33.1112 34.6303 33.1401Z" fill="white"/>
<path d="M23.8433 33.1114C23.8433 33.0825 23.8433 33.1114 23.8433 33.1114C23.904 33.0825 23.8736 33.0825 23.8736 33.0537C23.8736 33.0248 23.8737 33.0248 23.9041 33.0248C23.9344 33.0248 23.9952 32.9959 24.0256 33.0248C24.0256 33.0248 24.056 33.0248 24.056 32.9959C24.0864 32.9671 24.1471 32.9671 24.1775 32.9959H24.2079C24.2687 32.9959 24.2991 32.9959 24.3599 32.967H24.3902H24.4206C24.4814 32.9382 24.5118 32.9382 24.5726 32.967C24.603 32.967 24.6334 32.967 24.6637 32.967C24.6637 32.967 24.6941 32.967 24.6941 32.9382H24.7245C24.6941 32.967 24.7245 32.967 24.7549 32.967C24.8157 32.967 24.846 32.967 24.9068 32.967C24.9068 32.967 24.9372 32.967 24.9068 32.9382H24.9372C24.998 32.967 25.0587 32.9382 25.0891 32.9382C25.0891 32.9382 25.1196 32.9093 25.1196 32.9382C25.1196 32.9093 25.1499 32.9382 25.1499 32.9382C25.1499 32.9382 25.1499 32.9382 25.1803 32.9382C25.1803 32.9382 25.1803 32.9382 25.1499 32.9382H25.1803C25.2411 32.9382 25.2715 32.9382 25.3322 32.9382C25.3322 32.9382 25.3019 32.9382 25.3019 32.9093C25.3019 32.9093 25.3322 32.9093 25.3626 32.9093C25.4234 32.9382 25.4538 32.9382 25.5146 32.9093C25.5753 32.9093 25.6057 32.9093 25.6665 32.9093C25.7273 32.9093 25.7273 32.967 25.7881 32.9382H25.7577C25.7881 32.9382 25.7881 32.9093 25.8184 32.9382C25.8792 32.9382 25.94 32.9382 26.0008 32.9093C26.0311 32.8804 26.0919 32.9093 26.1527 32.8804C26.1527 32.9093 26.1527 32.9093 26.1831 32.9382C26.2439 32.9382 26.3047 32.9382 26.3654 32.9093C26.4262 32.9093 26.4566 32.9093 26.5174 32.9093C26.5478 32.9382 26.5477 32.9382 26.5781 32.9093H26.6085C26.6693 32.9093 26.6997 32.9093 26.7604 32.9093H26.7909H26.7604H26.7909C26.8212 32.9093 26.8516 32.9093 26.882 32.9382C26.9124 32.9382 26.9124 32.967 26.9124 32.967C26.9124 32.9959 26.9124 32.9959 26.9428 32.9959C27.0036 32.9959 27.034 32.9959 27.0947 32.9959C27.1251 32.9959 27.1859 32.967 27.2162 32.9382L27.2467 32.967C27.2467 32.9959 27.277 32.967 27.3074 32.967C27.3074 32.967 27.3378 32.967 27.3074 32.967C27.3378 32.967 27.3378 32.9382 27.3682 32.9382C27.3986 32.9382 27.3986 32.9382 27.429 32.9382C27.429 32.9382 27.429 32.9382 27.4594 32.9382H27.429C27.429 32.9382 27.4594 32.9382 27.4897 32.9382C27.5809 32.9093 27.5809 32.9093 27.6417 32.9382C27.6721 32.9382 27.7025 32.9382 27.7329 32.9382H27.7632C27.7632 32.9382 27.7632 32.9382 27.7329 32.9382C27.7329 32.9382 27.7329 32.9382 27.7025 32.9382C27.7329 32.9382 27.7936 32.9382 27.824 32.9382C27.8544 32.967 27.8848 32.9382 27.8848 32.967C27.9152 32.967 27.9152 32.967 27.9456 32.967C27.9456 32.967 27.976 32.9382 28.0064 32.967C28.0367 32.9959 28.0975 32.9671 28.0975 32.9959C28.0975 32.9959 28.1279 32.9959 28.1279 33.0248C28.1583 32.9959 28.1583 32.9959 28.1887 33.0248C28.2191 33.0537 28.219 33.0248 28.2494 33.0248C28.2798 32.9959 28.3102 32.9959 28.3406 32.9959H28.371C28.371 32.9959 28.371 32.9959 28.3406 32.9959C28.3406 32.9959 28.3406 32.9959 28.3102 32.9959H28.3406C28.371 32.9959 28.4014 32.9959 28.4014 32.967C28.4014 32.967 28.4317 32.9382 28.4317 32.967C28.4317 32.967 28.4318 32.9959 28.4622 32.967C28.4925 32.9382 28.4925 32.967 28.5229 32.9382C28.5533 32.9382 28.5837 32.9382 28.6141 32.9382C28.6445 32.9382 28.6748 32.9382 28.7356 32.9093C28.7964 32.8804 28.8572 32.8804 28.918 32.9093C28.9484 32.9093 28.9787 32.9382 29.0395 32.9093H29.0699C29.0699 32.9093 29.0699 32.9093 29.0395 32.9093C29.0091 32.9093 29.0091 32.9093 29.0091 32.9382C29.0091 32.967 29.0395 32.9382 29.0395 32.9382C29.1003 32.9382 29.1611 32.9093 29.2218 32.9093C29.2522 32.9093 29.2826 32.9382 29.2826 32.9093C29.313 32.9093 29.2826 32.9382 29.2826 32.9382C29.2826 32.9382 29.2522 32.967 29.2826 32.967C29.313 32.967 29.3434 32.967 29.3738 32.967C29.4042 32.967 29.4042 32.9671 29.4042 32.9959C29.4042 32.9959 29.4042 33.0248 29.4345 32.9959H29.4649C29.4953 32.9959 29.4953 32.9959 29.4953 32.967C29.5257 32.967 29.5865 32.9382 29.6169 32.967C29.6472 32.967 29.6473 32.967 29.6777 32.967C29.708 32.967 29.7384 32.9382 29.7384 32.9959C29.7384 32.9959 29.7384 32.9959 29.7384 32.967C29.7384 32.9382 29.7688 32.9382 29.7992 32.9382H29.8296C29.86 32.9382 29.86 32.9382 29.86 32.967H29.8904H29.9207V32.9959C29.9511 32.9959 29.9815 32.9959 30.0119 32.9959C30.0423 32.9959 30.1031 32.9671 30.1335 32.9959C30.1639 32.9959 30.1942 32.9959 30.2246 32.9959C30.255 32.9959 30.1942 32.967 30.2246 32.967H30.255H30.2854C30.2854 32.9382 30.3158 32.9382 30.3158 32.967C30.3158 32.967 30.3158 32.9959 30.3462 32.967C30.3765 32.9382 30.407 32.9382 30.4373 32.967C30.4373 32.967 30.4677 32.967 30.4981 32.967C30.5285 32.967 30.5589 32.967 30.5589 32.967C30.5892 32.9382 30.65 32.967 30.6804 32.967C30.7108 32.967 30.7108 32.967 30.7412 32.9382C30.7716 32.9382 30.8323 32.9382 30.8627 32.967C30.8931 32.967 30.8931 32.967 30.9235 32.967C30.9235 32.967 30.9235 32.9382 30.9539 32.967C30.9539 32.967 31.0147 32.9959 31.0147 32.967C31.0147 32.967 31.0451 32.967 31.0755 32.967C31.1059 32.967 31.1362 32.9382 31.1362 32.9959C31.1362 32.9671 31.1666 32.9959 31.197 32.967C31.2578 32.967 31.2882 32.9671 31.349 32.9959C31.3793 32.9959 31.4401 32.9959 31.4705 32.9959C31.4705 32.9671 31.5009 32.9959 31.5009 32.9959C31.5617 32.9959 31.5921 32.9959 31.6528 32.9959C31.6528 32.9959 31.6528 32.9959 31.6832 32.9959H31.6528H31.6832C31.744 32.9671 31.8048 32.9959 31.8655 32.9959C31.9263 32.9671 31.9567 32.9959 32.0175 32.967C32.0782 32.9959 32.1694 32.967 32.2302 32.967H32.2606C32.2606 32.967 32.2606 32.967 32.291 32.967C32.3213 32.9382 32.3517 32.967 32.3821 32.967C32.4125 32.967 32.4125 32.9382 32.4429 32.967H32.4733C32.5037 32.967 32.5644 32.9382 32.6252 32.967C32.6556 32.9959 32.7164 32.9959 32.7468 32.967C32.7772 32.967 32.8379 32.967 32.8987 32.967C32.9899 32.967 33.0506 32.967 33.1418 32.967C33.1722 32.9382 33.233 32.9382 33.2633 32.967C33.3545 32.967 33.4457 32.967 33.5065 32.967C33.5672 32.967 33.628 32.9671 33.6584 32.9959C33.6584 32.9959 33.6888 32.9959 33.7191 32.9959C33.7495 32.9671 33.7799 32.9959 33.7799 32.9959C33.7799 33.0248 33.8103 33.0248 33.8103 32.9959H33.8407C33.8407 32.9959 33.8407 33.0248 33.8407 32.9959C33.8711 32.9671 33.9015 32.9959 33.9319 32.9959C33.9623 32.9959 33.9623 33.0248 33.9623 32.9959C33.9623 32.9671 33.9623 32.9959 33.9926 32.9959C34.0534 32.9959 34.0838 32.9959 34.1446 32.9959C34.175 32.9959 34.2357 32.9959 34.2661 32.9959C34.2965 32.9959 34.3269 32.9959 34.3269 32.9959C34.3877 32.9959 34.4485 33.0248 34.5396 33.0248C34.5396 33.0248 34.5396 33.0248 34.57 33.0537C34.57 33.0825 34.6004 33.0825 34.6308 33.0825C34.6308 33.0825 34.6611 33.0825 34.6611 33.1114C34.6611 33.1403 34.6612 33.1403 34.6308 33.1403C34.57 33.1403 34.5396 33.1403 34.4788 33.1403C34.4484 33.1403 34.4181 33.1403 34.3877 33.1403H34.3573C34.3573 33.1692 34.3269 33.1403 34.3269 33.1403C34.2661 33.1114 34.2357 33.1403 34.175 33.1403C34.1446 33.1403 34.0838 33.1403 34.023 33.1403C33.9926 33.1403 33.9623 33.1403 33.9319 33.1403C33.8407 33.1403 33.7192 33.1403 33.628 33.1403C33.5976 33.1403 33.5976 33.1403 33.5672 33.1403C33.5368 33.1403 33.5065 33.1403 33.4761 33.1403C33.4457 33.1403 33.3849 33.1403 33.3545 33.1403C33.3241 33.1403 33.3241 33.1403 33.2937 33.1403C33.2633 33.1403 33.233 33.1403 33.2026 33.1403C33.1418 33.1692 33.081 33.1403 32.9898 33.1403C32.9595 33.1403 32.9291 33.1403 32.8987 33.1403C32.8683 33.1403 32.8379 33.1403 32.7771 33.1403C32.7164 33.1403 32.686 33.1114 32.6252 33.1403C32.5644 33.1403 32.534 33.1114 32.5037 33.1403C32.4429 33.1403 32.4125 33.1403 32.3517 33.1403C32.2909 33.1692 32.2606 33.1403 32.1998 33.1691C32.1694 33.1691 32.1086 33.1691 32.0782 33.1691C32.0175 33.1691 31.9567 33.1691 31.8959 33.1691C31.8655 33.1691 31.8047 33.1403 31.7744 33.1691C31.7744 33.1403 31.7136 33.1691 31.7136 33.1691C31.6528 33.1691 31.5921 33.1403 31.5009 33.1691C31.4401 33.1691 31.3793 33.1691 31.3185 33.1691C31.2882 33.1691 31.2274 33.1691 31.197 33.1691C31.1666 33.1691 31.1362 33.1691 31.1058 33.1691C31.1058 33.1691 31.0755 33.1692 31.0755 33.1403C31.0755 33.1403 31.0451 33.1403 31.0147 33.1403C30.9539 33.1403 30.8627 33.1692 30.802 33.1403C30.7716 33.1403 30.7412 33.1403 30.7108 33.1403H30.6804C30.6804 33.1692 30.65 33.1691 30.65 33.1691H30.6197H30.65C30.6196 33.1691 30.5892 33.1691 30.5589 33.1691H30.5285C30.5285 33.1691 30.5589 33.1691 30.5285 33.198C30.4981 33.198 30.4981 33.198 30.4981 33.198H30.4677C30.4373 33.2269 30.3766 33.2269 30.3158 33.198C30.2854 33.198 30.255 33.198 30.1942 33.198C30.1638 33.198 30.1639 33.198 30.1335 33.198C30.1335 33.2269 30.1031 33.198 30.0727 33.198C30.0119 33.198 29.9207 33.198 29.86 33.198C29.8296 33.198 29.7688 33.1691 29.7384 33.1691C29.6776 33.1691 29.6473 33.1691 29.5865 33.1691C29.5865 33.1691 29.5865 33.1691 29.6169 33.1691H29.6472H29.6169C29.4649 33.1691 29.313 33.1691 29.1307 33.1691C29.0699 33.1691 28.9787 33.1691 28.918 33.1691C28.8876 33.1691 28.8876 33.198 28.8572 33.198C28.7964 33.198 28.7356 33.198 28.6445 33.198C28.6141 33.198 28.5533 33.198 28.5229 33.198C28.4925 33.198 28.4925 33.198 28.4622 33.198C28.4014 33.198 28.3406 33.198 28.2798 33.198C28.2494 33.198 28.219 33.198 28.219 33.198H28.1887C28.1887 33.1691 28.1583 33.198 28.1583 33.198C28.1279 33.2269 28.0975 33.2269 28.0671 33.198C28.0063 33.198 27.9759 33.198 27.9152 33.198C27.9152 33.198 27.8848 33.198 27.8544 33.198C27.8544 33.2269 27.824 33.2269 27.824 33.198C27.7936 33.198 27.7936 33.1691 27.7632 33.1691C27.7025 33.1691 27.6417 33.1691 27.6113 33.1691C27.4898 33.1691 27.3682 33.1691 27.2467 33.1691C27.1859 33.1691 27.0947 33.1691 27.0339 33.1691C27.0035 33.1691 26.9428 33.1691 26.9124 33.1691C26.8212 33.1691 26.7605 33.1691 26.6693 33.1691C26.6389 33.1691 26.6389 33.1691 26.6085 33.1691C26.5781 33.1691 26.5781 33.1691 26.5477 33.1691C26.5174 33.198 26.5174 33.1691 26.487 33.1691C26.4566 33.1691 26.3958 33.1691 26.3654 33.1691C26.2743 33.1691 26.2135 33.1691 26.1223 33.1691C26.1223 33.1691 26.0919 33.1692 26.1223 33.1403H26.0919C26.0919 33.1403 26.0615 33.1403 26.0919 33.1691C26.0615 33.1403 26.0008 33.1692 25.9704 33.1403C25.8488 33.1403 25.7577 33.1403 25.6361 33.1403H25.6057C25.545 33.1403 25.4842 33.1403 25.4538 33.1403C25.393 33.1114 25.3323 33.1403 25.2715 33.1403C25.2411 33.1403 25.2107 33.1114 25.1803 33.1403C25.1803 33.1403 25.1803 33.1403 25.1499 33.1403C25.1195 33.1114 25.0588 33.1403 25.0284 33.1403C24.998 33.1403 24.998 33.1403 24.9676 33.1114H24.9372C24.8764 33.1403 24.7853 33.1403 24.7245 33.1114C24.6637 33.0825 24.6333 33.1114 24.5726 33.1114C24.5726 33.1114 24.5726 33.1114 24.5422 33.1114C24.5118 33.0825 24.5118 33.1114 24.4814 33.1114C24.4814 33.1403 24.4814 33.1403 24.451 33.1403H24.4814C24.4814 33.1114 24.451 33.1403 24.451 33.1403C24.3902 33.1692 24.2991 33.1403 24.2079 33.1403C24.1775 33.1403 24.1775 33.1403 24.1471 33.1403H24.1168C24.1168 33.1114 24.1168 33.1403 24.1168 33.1403C24.1471 33.1114 24.1168 33.1114 24.0864 33.1114C24.0864 33.1114 24.1168 33.1114 24.0864 33.1403C24.056 33.1403 24.056 33.1403 24.056 33.1114C24.0256 33.1114 23.9952 33.1114 23.9648 33.1114C23.904 33.198 23.8433 33.1403 23.8433 33.1114ZM30.8627 33.2558C30.8931 33.2558 30.8931 33.2558 30.8931 33.2558C30.8931 33.2558 30.8931 33.2558 30.8627 33.2558C30.8931 33.2558 30.8627 33.2269 30.8627 33.2558ZM29.9207 33.2269C29.8903 33.2269 29.9207 33.2269 29.9207 33.2269C29.8903 33.2269 29.8903 33.2269 29.9207 33.2269ZM29.8904 33.0248C29.9207 33.0248 29.9207 33.0248 29.9207 33.0248H29.8904ZM29.2218 33.0248C29.2522 33.0248 29.2522 33.0248 29.2522 33.0248C29.2522 32.9959 29.2218 32.9959 29.2218 33.0248ZM28.0367 32.9959C28.0367 32.9959 28.0367 33.0248 28.0367 32.9959C28.0671 32.9959 28.0975 32.9959 28.0975 32.9959C28.0975 32.9959 28.0671 32.9959 28.0367 32.9959ZM25.5754 32.9382C25.5754 32.967 25.6057 32.9382 25.6057 32.9382H25.6361H25.6057C25.6361 32.967 25.6057 32.9093 25.5754 32.9382ZM25.393 32.967H25.4234C25.4234 32.9382 25.393 32.9382 25.393 32.967Z" fill="white"/>
<path d="M25.9084 32.9678C25.9084 32.9378 25.9084 32.9378 25.9084 32.9678C25.8783 32.9378 25.9084 32.9378 25.9084 32.9678C25.9084 32.9678 25.8783 32.9678 25.9084 32.9678Z" fill="white"/>
<path d="M24.5139 32.967C24.5139 32.967 24.5438 32.967 24.5438 32.9381C24.5438 32.9381 24.5438 32.9381 24.5139 32.967C24.5438 32.9381 24.5438 32.9381 24.5139 32.967Z" fill="white"/>
<path d="M27.703 32.9946C27.703 32.9649 27.703 32.9946 27.703 32.9946C27.6723 32.9649 27.6723 32.9946 27.703 32.9946C27.6723 32.9946 27.6723 32.9946 27.703 32.9946Z" fill="white"/>
<path d="M23.9946 33.2266C23.9946 33.2266 23.9946 33.2555 23.9946 33.2266C24.0246 33.2266 24.0246 33.2266 24.0246 33.2266C24.0246 33.2266 24.0246 33.2266 23.9946 33.2266Z" fill="white"/>
<path d="M24.6632 32.9381C24.6325 32.9381 24.6325 32.9381 24.6632 32.9381C24.6325 32.9381 24.6325 32.9678 24.6632 32.9381Z" fill="white"/>
<path d="M27.429 33.2843C27.398 33.2843 27.398 33.2843 27.429 33.2843C27.398 33.3143 27.429 33.3143 27.429 33.2843C27.429 33.3143 27.429 33.3143 27.429 33.2843Z" fill="white"/>
<path d="M34.6303 33.1401C34.6303 33.1112 34.6303 33.1112 34.6004 33.1112C34.5705 33.1112 34.5706 33.1112 34.5706 33.1112C34.5706 33.1112 34.6004 33.1112 34.6303 33.1401Z" fill="#DFE2F6"/>
<path d="M23.8433 33.1114C23.8433 33.0825 23.8433 33.1114 23.8433 33.1114C23.904 33.0825 23.8736 33.0825 23.8736 33.0537C23.8736 33.0248 23.8737 33.0248 23.9041 33.0248C23.9344 33.0248 23.9952 32.9959 24.0256 33.0248C24.0256 33.0248 24.056 33.0248 24.056 32.9959C24.0864 32.9671 24.1471 32.9671 24.1775 32.9959H24.2079C24.2687 32.9959 24.2991 32.9959 24.3599 32.967H24.3902H24.4206C24.4814 32.9382 24.5118 32.9382 24.5726 32.967C24.603 32.967 24.6334 32.967 24.6637 32.967C24.6637 32.967 24.6941 32.967 24.6941 32.9382H24.7245C24.6941 32.967 24.7245 32.967 24.7549 32.967C24.8157 32.967 24.846 32.967 24.9068 32.967C24.9068 32.967 24.9372 32.967 24.9068 32.9382H24.9372C24.998 32.967 25.0587 32.9382 25.0891 32.9382C25.0891 32.9382 25.1196 32.9093 25.1196 32.9382C25.1196 32.9093 25.1499 32.9382 25.1499 32.9382C25.1499 32.9382 25.1499 32.9382 25.1803 32.9382C25.1803 32.9382 25.1803 32.9382 25.1499 32.9382H25.1803C25.2411 32.9382 25.2715 32.9382 25.3322 32.9382C25.3322 32.9382 25.3019 32.9382 25.3019 32.9093C25.3019 32.9093 25.3322 32.9093 25.3626 32.9093C25.4234 32.9382 25.4538 32.9382 25.5146 32.9093C25.5753 32.9093 25.6057 32.9093 25.6665 32.9093C25.7273 32.9093 25.7273 32.967 25.7881 32.9382H25.7577C25.7881 32.9382 25.7881 32.9093 25.8184 32.9382C25.8792 32.9382 25.94 32.9382 26.0008 32.9093C26.0311 32.8804 26.0919 32.9093 26.1527 32.8804C26.1527 32.9093 26.1527 32.9093 26.1831 32.9382C26.2439 32.9382 26.3047 32.9382 26.3654 32.9093C26.4262 32.9093 26.4566 32.9093 26.5174 32.9093C26.5478 32.9382 26.5477 32.9382 26.5781 32.9093H26.6085C26.6693 32.9093 26.6997 32.9093 26.7604 32.9093H26.7909H26.7604H26.7909C26.8212 32.9093 26.8516 32.9093 26.882 32.9382C26.9124 32.9382 26.9124 32.967 26.9124 32.967C26.9124 32.9959 26.9124 32.9959 26.9428 32.9959C27.0036 32.9959 27.034 32.9959 27.0947 32.9959C27.1251 32.9959 27.1859 32.967 27.2162 32.9382L27.2467 32.967C27.2467 32.9959 27.277 32.967 27.3074 32.967C27.3074 32.967 27.3378 32.967 27.3074 32.967C27.3378 32.967 27.3378 32.9382 27.3682 32.9382C27.3986 32.9382 27.3986 32.9382 27.429 32.9382C27.429 32.9382 27.429 32.9382 27.4594 32.9382H27.429C27.429 32.9382 27.4594 32.9382 27.4897 32.9382C27.5809 32.9093 27.5809 32.9093 27.6417 32.9382C27.6721 32.9382 27.7025 32.9382 27.7329 32.9382H27.7632C27.7632 32.9382 27.7632 32.9382 27.7329 32.9382C27.7329 32.9382 27.7329 32.9382 27.7025 32.9382C27.7329 32.9382 27.7936 32.9382 27.824 32.9382C27.8544 32.967 27.8848 32.9382 27.8848 32.967C27.9152 32.967 27.9152 32.967 27.9456 32.967C27.9456 32.967 27.976 32.9382 28.0064 32.967C28.0367 32.9959 28.0975 32.9671 28.0975 32.9959C28.0975 32.9959 28.1279 32.9959 28.1279 33.0248C28.1583 32.9959 28.1583 32.9959 28.1887 33.0248C28.2191 33.0537 28.219 33.0248 28.2494 33.0248C28.2798 32.9959 28.3102 32.9959 28.3406 32.9959H28.371C28.371 32.9959 28.371 32.9959 28.3406 32.9959C28.3406 32.9959 28.3406 32.9959 28.3102 32.9959H28.3406C28.371 32.9959 28.4014 32.9959 28.4014 32.967C28.4014 32.967 28.4317 32.9382 28.4317 32.967C28.4317 32.967 28.4318 32.9959 28.4622 32.967C28.4925 32.9382 28.4925 32.967 28.5229 32.9382C28.5533 32.9382 28.5837 32.9382 28.6141 32.9382C28.6445 32.9382 28.6748 32.9382 28.7356 32.9093C28.7964 32.8804 28.8572 32.8804 28.918 32.9093C28.9484 32.9093 28.9787 32.9382 29.0395 32.9093H29.0699C29.0699 32.9093 29.0699 32.9093 29.0395 32.9093C29.0091 32.9093 29.0091 32.9093 29.0091 32.9382C29.0091 32.967 29.0395 32.9382 29.0395 32.9382C29.1003 32.9382 29.1611 32.9093 29.2218 32.9093C29.2522 32.9093 29.2826 32.9382 29.2826 32.9093C29.313 32.9093 29.2826 32.9382 29.2826 32.9382C29.2826 32.9382 29.2522 32.967 29.2826 32.967C29.313 32.967 29.3434 32.967 29.3738 32.967C29.4042 32.967 29.4042 32.9671 29.4042 32.9959C29.4042 32.9959 29.4042 33.0248 29.4345 32.9959H29.4649C29.4953 32.9959 29.4953 32.9959 29.4953 32.967C29.5257 32.967 29.5865 32.9382 29.6169 32.967C29.6472 32.967 29.6473 32.967 29.6777 32.967C29.708 32.967 29.7384 32.9382 29.7384 32.9959C29.7384 32.9959 29.7384 32.9959 29.7384 32.967C29.7384 32.9382 29.7688 32.9382 29.7992 32.9382H29.8296C29.86 32.9382 29.86 32.9382 29.86 32.967H29.8904H29.9207V32.9959C29.9511 32.9959 29.9815 32.9959 30.0119 32.9959C30.0423 32.9959 30.1031 32.9671 30.1335 32.9959C30.1639 32.9959 30.1942 32.9959 30.2246 32.9959C30.255 32.9959 30.1942 32.967 30.2246 32.967H30.255H30.2854C30.2854 32.9382 30.3158 32.9382 30.3158 32.967C30.3158 32.967 30.3158 32.9959 30.3462 32.967C30.3765 32.9382 30.407 32.9382 30.4373 32.967C30.4373 32.967 30.4677 32.967 30.4981 32.967C30.5285 32.967 30.5589 32.967 30.5589 32.967C30.5892 32.9382 30.65 32.967 30.6804 32.967C30.7108 32.967 30.7108 32.967 30.7412 32.9382C30.7716 32.9382 30.8323 32.9382 30.8627 32.967C30.8931 32.967 30.8931 32.967 30.9235 32.967C30.9235 32.967 30.9235 32.9382 30.9539 32.967C30.9539 32.967 31.0147 32.9959 31.0147 32.967C31.0147 32.967 31.0451 32.967 31.0755 32.967C31.1059 32.967 31.1362 32.9382 31.1362 32.9959C31.1362 32.9671 31.1666 32.9959 31.197 32.967C31.2578 32.967 31.2882 32.9671 31.349 32.9959C31.3793 32.9959 31.4401 32.9959 31.4705 32.9959C31.4705 32.9671 31.5009 32.9959 31.5009 32.9959C31.5617 32.9959 31.5921 32.9959 31.6528 32.9959C31.6528 32.9959 31.6528 32.9959 31.6832 32.9959H31.6528H31.6832C31.744 32.9671 31.8048 32.9959 31.8655 32.9959C31.9263 32.9671 31.9567 32.9959 32.0175 32.967C32.0782 32.9959 32.1694 32.967 32.2302 32.967H32.2606C32.2606 32.967 32.2606 32.967 32.291 32.967C32.3213 32.9382 32.3517 32.967 32.3821 32.967C32.4125 32.967 32.4125 32.9382 32.4429 32.967H32.4733C32.5037 32.967 32.5644 32.9382 32.6252 32.967C32.6556 32.9959 32.7164 32.9959 32.7468 32.967C32.7772 32.967 32.8379 32.967 32.8987 32.967C32.9899 32.967 33.0506 32.967 33.1418 32.967C33.1722 32.9382 33.233 32.9382 33.2633 32.967C33.3545 32.967 33.4457 32.967 33.5065 32.967C33.5672 32.967 33.628 32.9671 33.6584 32.9959C33.6584 32.9959 33.6888 32.9959 33.7191 32.9959C33.7495 32.9671 33.7799 32.9959 33.7799 32.9959C33.7799 33.0248 33.8103 33.0248 33.8103 32.9959H33.8407C33.8407 32.9959 33.8407 33.0248 33.8407 32.9959C33.8711 32.9671 33.9015 32.9959 33.9319 32.9959C33.9623 32.9959 33.9623 33.0248 33.9623 32.9959C33.9623 32.9671 33.9623 32.9959 33.9926 32.9959C34.0534 32.9959 34.0838 32.9959 34.1446 32.9959C34.175 32.9959 34.2357 32.9959 34.2661 32.9959C34.2965 32.9959 34.3269 32.9959 34.3269 32.9959C34.3877 32.9959 34.4485 33.0248 34.5396 33.0248C34.5396 33.0248 34.5396 33.0248 34.57 33.0537C34.57 33.0825 34.6004 33.0825 34.6308 33.0825C34.6308 33.0825 34.6611 33.0825 34.6611 33.1114C34.6611 33.1403 34.6612 33.1403 34.6308 33.1403C34.57 33.1403 34.5396 33.1403 34.4788 33.1403C34.4484 33.1403 34.4181 33.1403 34.3877 33.1403H34.3573C34.3573 33.1692 34.3269 33.1403 34.3269 33.1403C34.2661 33.1114 34.2357 33.1403 34.175 33.1403C34.1446 33.1403 34.0838 33.1403 34.023 33.1403C33.9926 33.1403 33.9623 33.1403 33.9319 33.1403C33.8407 33.1403 33.7192 33.1403 33.628 33.1403C33.5976 33.1403 33.5976 33.1403 33.5672 33.1403C33.5368 33.1403 33.5065 33.1403 33.4761 33.1403C33.4457 33.1403 33.3849 33.1403 33.3545 33.1403C33.3241 33.1403 33.3241 33.1403 33.2937 33.1403C33.2633 33.1403 33.233 33.1403 33.2026 33.1403C33.1418 33.1692 33.081 33.1403 32.9898 33.1403C32.9595 33.1403 32.9291 33.1403 32.8987 33.1403C32.8683 33.1403 32.8379 33.1403 32.7771 33.1403C32.7164 33.1403 32.686 33.1114 32.6252 33.1403C32.5644 33.1403 32.534 33.1114 32.5037 33.1403C32.4429 33.1403 32.4125 33.1403 32.3517 33.1403C32.2909 33.1692 32.2606 33.1403 32.1998 33.1691C32.1694 33.1691 32.1086 33.1691 32.0782 33.1691C32.0175 33.1691 31.9567 33.1691 31.8959 33.1691C31.8655 33.1691 31.8047 33.1403 31.7744 33.1691C31.7744 33.1403 31.7136 33.1691 31.7136 33.1691C31.6528 33.1691 31.5921 33.1403 31.5009 33.1691C31.4401 33.1691 31.3793 33.1691 31.3185 33.1691C31.2882 33.1691 31.2274 33.1691 31.197 33.1691C31.1666 33.1691 31.1362 33.1691 31.1058 33.1691C31.1058 33.1691 31.0755 33.1692 31.0755 33.1403C31.0755 33.1403 31.0451 33.1403 31.0147 33.1403C30.9539 33.1403 30.8627 33.1692 30.802 33.1403C30.7716 33.1403 30.7412 33.1403 30.7108 33.1403H30.6804C30.6804 33.1692 30.65 33.1691 30.65 33.1691H30.6197H30.65C30.6196 33.1691 30.5892 33.1691 30.5589 33.1691H30.5285C30.5285 33.1691 30.5589 33.1691 30.5285 33.198C30.4981 33.198 30.4981 33.198 30.4981 33.198H30.4677C30.4373 33.2269 30.3766 33.2269 30.3158 33.198C30.2854 33.198 30.255 33.198 30.1942 33.198C30.1638 33.198 30.1639 33.198 30.1335 33.198C30.1335 33.2269 30.1031 33.198 30.0727 33.198C30.0119 33.198 29.9207 33.198 29.86 33.198C29.8296 33.198 29.7688 33.1691 29.7384 33.1691C29.6776 33.1691 29.6473 33.1691 29.5865 33.1691C29.5865 33.1691 29.5865 33.1691 29.6169 33.1691H29.6472H29.6169C29.4649 33.1691 29.313 33.1691 29.1307 33.1691C29.0699 33.1691 28.9787 33.1691 28.918 33.1691C28.8876 33.1691 28.8876 33.198 28.8572 33.198C28.7964 33.198 28.7356 33.198 28.6445 33.198C28.6141 33.198 28.5533 33.198 28.5229 33.198C28.4925 33.198 28.4925 33.198 28.4622 33.198C28.4014 33.198 28.3406 33.198 28.2798 33.198C28.2494 33.198 28.219 33.198 28.219 33.198H28.1887C28.1887 33.1691 28.1583 33.198 28.1583 33.198C28.1279 33.2269 28.0975 33.2269 28.0671 33.198C28.0063 33.198 27.9759 33.198 27.9152 33.198C27.9152 33.198 27.8848 33.198 27.8544 33.198C27.8544 33.2269 27.824 33.2269 27.824 33.198C27.7936 33.198 27.7936 33.1691 27.7632 33.1691C27.7025 33.1691 27.6417 33.1691 27.6113 33.1691C27.4898 33.1691 27.3682 33.1691 27.2467 33.1691C27.1859 33.1691 27.0947 33.1691 27.0339 33.1691C27.0035 33.1691 26.9428 33.1691 26.9124 33.1691C26.8212 33.1691 26.7605 33.1691 26.6693 33.1691C26.6389 33.1691 26.6389 33.1691 26.6085 33.1691C26.5781 33.1691 26.5781 33.1691 26.5477 33.1691C26.5174 33.198 26.5174 33.1691 26.487 33.1691C26.4566 33.1691 26.3958 33.1691 26.3654 33.1691C26.2743 33.1691 26.2135 33.1691 26.1223 33.1691C26.1223 33.1691 26.0919 33.1692 26.1223 33.1403H26.0919C26.0919 33.1403 26.0615 33.1403 26.0919 33.1691C26.0615 33.1403 26.0008 33.1692 25.9704 33.1403C25.8488 33.1403 25.7577 33.1403 25.6361 33.1403H25.6057C25.545 33.1403 25.4842 33.1403 25.4538 33.1403C25.393 33.1114 25.3323 33.1403 25.2715 33.1403C25.2411 33.1403 25.2107 33.1114 25.1803 33.1403C25.1803 33.1403 25.1803 33.1403 25.1499 33.1403C25.1195 33.1114 25.0588 33.1403 25.0284 33.1403C24.998 33.1403 24.998 33.1403 24.9676 33.1114H24.9372C24.8764 33.1403 24.7853 33.1403 24.7245 33.1114C24.6637 33.0825 24.6333 33.1114 24.5726 33.1114C24.5726 33.1114 24.5726 33.1114 24.5422 33.1114C24.5118 33.0825 24.5118 33.1114 24.4814 33.1114C24.4814 33.1403 24.4814 33.1403 24.451 33.1403H24.4814C24.4814 33.1114 24.451 33.1403 24.451 33.1403C24.3902 33.1692 24.2991 33.1403 24.2079 33.1403C24.1775 33.1403 24.1775 33.1403 24.1471 33.1403H24.1168C24.1168 33.1114 24.1168 33.1403 24.1168 33.1403C24.1471 33.1114 24.1168 33.1114 24.0864 33.1114C24.0864 33.1114 24.1168 33.1114 24.0864 33.1403C24.056 33.1403 24.056 33.1403 24.056 33.1114C24.0256 33.1114 23.9952 33.1114 23.9648 33.1114C23.904 33.198 23.8433 33.1403 23.8433 33.1114ZM30.8627 33.2558C30.8931 33.2558 30.8931 33.2558 30.8931 33.2558C30.8931 33.2558 30.8931 33.2558 30.8627 33.2558C30.8931 33.2558 30.8627 33.2269 30.8627 33.2558ZM29.9207 33.2269C29.8903 33.2269 29.9207 33.2269 29.9207 33.2269C29.8903 33.2269 29.8903 33.2269 29.9207 33.2269ZM29.8904 33.0248C29.9207 33.0248 29.9207 33.0248 29.9207 33.0248H29.8904ZM29.2218 33.0248C29.2522 33.0248 29.2522 33.0248 29.2522 33.0248C29.2522 32.9959 29.2218 32.9959 29.2218 33.0248ZM28.0367 32.9959C28.0367 32.9959 28.0367 33.0248 28.0367 32.9959C28.0671 32.9959 28.0975 32.9959 28.0975 32.9959C28.0975 32.9959 28.0671 32.9959 28.0367 32.9959ZM25.5754 32.9382C25.5754 32.967 25.6057 32.9382 25.6057 32.9382H25.6361H25.6057C25.6361 32.967 25.6057 32.9093 25.5754 32.9382ZM25.393 32.967H25.4234C25.4234 32.9382 25.393 32.9382 25.393 32.967Z" fill="#DFE2F6"/>
<path d="M25.9084 32.9678C25.9084 32.9378 25.9084 32.9378 25.9084 32.9678C25.8783 32.9378 25.9084 32.9378 25.9084 32.9678C25.9084 32.9678 25.8783 32.9678 25.9084 32.9678Z" fill="#DFE2F6"/>
<path d="M24.5139 32.967C24.5139 32.967 24.5438 32.967 24.5438 32.9381C24.5438 32.9381 24.5438 32.9381 24.5139 32.967C24.5438 32.9381 24.5438 32.9381 24.5139 32.967Z" fill="#DFE2F6"/>
<path d="M27.703 32.9946C27.703 32.9649 27.703 32.9946 27.703 32.9946C27.6723 32.9649 27.6723 32.9946 27.703 32.9946C27.6723 32.9946 27.6723 32.9946 27.703 32.9946Z" fill="#DFE2F6"/>
<path d="M23.9946 33.2266C23.9946 33.2266 23.9946 33.2555 23.9946 33.2266C24.0246 33.2266 24.0246 33.2266 24.0246 33.2266C24.0246 33.2266 24.0246 33.2266 23.9946 33.2266Z" fill="#DFE2F6"/>
<path d="M24.6632 32.9381C24.6325 32.9381 24.6325 32.9381 24.6632 32.9381C24.6325 32.9381 24.6325 32.9678 24.6632 32.9381Z" fill="#DFE2F6"/>
<path d="M27.429 33.2843C27.398 33.2843 27.398 33.2843 27.429 33.2843C27.398 33.3143 27.429 33.3143 27.429 33.2843C27.429 33.3143 27.429 33.3143 27.429 33.2843Z" fill="#DFE2F6"/>
</svg>
